<svg width="1280" height="707" viewBox="0 0 1280 707" fill="none" xmlns="http://www.w3.org/2000/svg">
<g id="home-cta-background" clip-path="url(#clip0_8_55339)">
<g id="Vector Field Generator" clip-path="url(#clip1_8_55339)">
<path id="Vector" d="M751.934 706.5C751.306 706.122 750.49 706.325 750.113 706.954C749.735 707.582 749.938 708.398 750.567 708.775C751.195 709.153 752.011 708.95 752.388 708.321C752.766 707.693 752.563 706.877 751.934 706.5Z" fill="black"/>
<path id="Vector_2" d="M758.61 693.572C757.982 693.195 757.166 693.398 756.789 694.027C756.411 694.655 756.615 695.471 757.243 695.848C757.871 696.226 758.687 696.022 759.065 695.394C759.442 694.765 759.239 693.95 758.61 693.572Z" fill="black"/>
<path id="Vector_3" d="M789.427 701.52C788.799 701.143 787.984 701.346 787.606 701.974C787.228 702.603 787.432 703.418 788.06 703.796C788.689 704.173 789.504 703.97 789.882 703.342C790.259 702.713 790.056 701.898 789.427 701.52Z" fill="black"/>
<path id="Vector_4" d="M769.147 682.366C768.518 681.989 767.703 682.192 767.325 682.821C766.948 683.449 767.151 684.264 767.779 684.642C768.408 685.02 769.223 684.816 769.601 684.188C769.978 683.559 769.775 682.744 769.147 682.366Z" fill="black"/>
<path id="Vector_5" d="M806.488 690.39C805.86 690.012 805.044 690.216 804.667 690.844C804.289 691.472 804.493 692.288 805.121 692.665C805.749 693.043 806.565 692.84 806.942 692.211C807.32 691.583 807.117 690.767 806.488 690.39Z" fill="black"/>
<path id="Vector_6" d="M783.83 671.471C783.202 671.093 782.386 671.297 782.009 671.925C781.631 672.553 781.834 673.369 782.463 673.747C783.091 674.124 783.907 673.921 784.284 673.292C784.662 672.664 784.458 671.848 783.83 671.471Z" fill="black"/>
<path id="Vector_7" d="M853.013 694.15C852.384 693.772 851.569 693.976 851.191 694.604C850.814 695.233 851.017 696.048 851.645 696.426C852.274 696.803 853.089 696.6 853.467 695.972C853.844 695.343 853.641 694.528 853.013 694.15Z" fill="black"/>
<path id="Vector_8" d="M827.296 677.402C826.668 677.025 825.852 677.228 825.475 677.857C825.097 678.485 825.3 679.301 825.929 679.678C826.557 680.056 827.373 679.852 827.75 679.224C828.128 678.596 827.924 677.78 827.296 677.402Z" fill="black"/>
<path id="Vector_9" d="M802.441 659.506C801.813 659.128 800.997 659.331 800.62 659.96C800.242 660.588 800.446 661.404 801.074 661.781C801.702 662.159 802.518 661.955 802.896 661.327C803.273 660.699 803.07 659.883 802.441 659.506Z" fill="black"/>
<path id="Vector_10" d="M932.305 701.594C931.676 701.216 930.861 701.42 930.483 702.048C930.106 702.676 930.309 703.492 930.937 703.87C931.566 704.247 932.381 704.044 932.759 703.415C933.136 702.787 932.933 701.971 932.305 701.594Z" fill="black"/>
<path id="Vector_11" d="M905.25 689.565C904.622 689.187 903.806 689.39 903.429 690.019C903.051 690.647 903.254 691.463 903.883 691.84C904.511 692.218 905.327 692.014 905.704 691.386C906.082 690.758 905.878 689.942 905.25 689.565Z" fill="black"/>
<path id="Vector_12" d="M878.034 676.219C877.406 675.842 876.59 676.045 876.213 676.674C875.835 677.302 876.038 678.118 876.667 678.495C877.295 678.873 878.111 678.669 878.488 678.041C878.866 677.412 878.663 676.597 878.034 676.219Z" fill="black"/>
<path id="Vector_13" d="M850.951 661.464C850.323 661.086 849.507 661.289 849.13 661.918C848.752 662.546 848.955 663.362 849.584 663.739C850.212 664.117 851.028 663.913 851.405 663.285C851.783 662.657 851.58 661.841 850.951 661.464Z" fill="black"/>
<path id="Vector_14" d="M824.329 645.268C823.701 644.891 822.885 645.094 822.508 645.722C822.13 646.351 822.333 647.166 822.962 647.544C823.59 647.921 824.406 647.718 824.783 647.09C825.161 646.461 824.957 645.646 824.329 645.268Z" fill="black"/>
<path id="Vector_15" d="M1056.24 705.971C1055.61 705.594 1054.8 705.797 1054.42 706.426C1054.04 707.054 1054.25 707.869 1054.88 708.247C1055.5 708.625 1056.32 708.421 1056.7 707.793C1057.07 707.164 1056.87 706.349 1056.24 705.971Z" fill="black"/>
<path id="Vector_16" d="M1033.18 698.868C1032.55 698.49 1031.73 698.694 1031.36 699.322C1030.98 699.95 1031.18 700.766 1031.81 701.144C1032.44 701.521 1033.26 701.318 1033.63 700.689C1034.01 700.061 1033.81 699.245 1033.18 698.868Z" fill="black"/>
<path id="Vector_17" d="M1009.14 691.481C1008.51 691.104 1007.69 691.307 1007.32 691.935C1006.94 692.564 1007.14 693.379 1007.77 693.757C1008.4 694.134 1009.21 693.931 1009.59 693.303C1009.97 692.674 1009.77 691.859 1009.14 691.481Z" fill="black"/>
<path id="Vector_18" d="M984.107 683.578C983.479 683.2 982.663 683.404 982.286 684.032C981.908 684.66 982.112 685.476 982.74 685.853C983.369 686.231 984.184 686.028 984.562 685.399C984.939 684.771 984.736 683.955 984.107 683.578Z" fill="black"/>
<path id="Vector_19" d="M958.146 674.903C957.518 674.525 956.702 674.729 956.325 675.357C955.947 675.986 956.151 676.801 956.779 677.179C957.407 677.556 958.223 677.353 958.601 676.724C958.978 676.096 958.775 675.28 958.146 674.903Z" fill="black"/>
<path id="Vector_20" d="M931.379 665.212C930.751 664.834 929.935 665.037 929.557 665.666C929.18 666.294 929.383 667.11 930.012 667.487C930.64 667.865 931.456 667.661 931.833 667.033C932.211 666.405 932.007 665.589 931.379 665.212Z" fill="black"/>
<path id="Vector_21" d="M904.002 654.265C903.374 653.888 902.558 654.091 902.18 654.719C901.803 655.348 902.006 656.163 902.635 656.541C903.263 656.918 904.079 656.715 904.456 656.087C904.834 655.458 904.63 654.643 904.002 654.265Z" fill="black"/>
<path id="Vector_22" d="M876.269 641.868C875.64 641.49 874.825 641.694 874.447 642.322C874.07 642.95 874.273 643.766 874.901 644.144C875.53 644.521 876.345 644.318 876.723 643.689C877.1 643.061 876.897 642.245 876.269 641.868Z" fill="black"/>
<path id="Vector_23" d="M848.514 627.891C847.885 627.514 847.07 627.717 846.692 628.345C846.315 628.974 846.518 629.789 847.146 630.167C847.775 630.545 848.59 630.341 848.968 629.713C849.345 629.084 849.142 628.269 848.514 627.891Z" fill="black"/>
<path id="Vector_24" d="M1149.6 699.176C1148.97 698.799 1148.16 699.002 1147.78 699.631C1147.4 700.259 1147.61 701.075 1148.24 701.452C1148.86 701.83 1149.68 701.626 1150.06 700.998C1150.43 700.369 1150.23 699.554 1149.6 699.176Z" fill="black"/>
<path id="Vector_25" d="M1131.33 691.13C1130.71 690.752 1129.89 690.956 1129.51 691.584C1129.14 692.213 1129.34 693.028 1129.97 693.406C1130.6 693.783 1131.41 693.58 1131.79 692.951C1132.17 692.323 1131.96 691.508 1131.33 691.13Z" fill="black"/>
<path id="Vector_26" d="M1112.61 683.648C1111.98 683.271 1111.16 683.474 1110.78 684.102C1110.41 684.731 1110.61 685.546 1111.24 685.924C1111.87 686.301 1112.68 686.098 1113.06 685.47C1113.44 684.841 1113.23 684.026 1112.61 683.648Z" fill="black"/>
<path id="Vector_27" d="M1093.25 676.682C1092.62 676.304 1091.81 676.508 1091.43 677.136C1091.05 677.764 1091.26 678.58 1091.88 678.957C1092.51 679.335 1093.33 679.132 1093.71 678.503C1094.08 677.875 1093.88 677.059 1093.25 676.682Z" fill="black"/>
<path id="Vector_28" d="M1073.1 670.13C1072.47 669.753 1071.66 669.956 1071.28 670.585C1070.9 671.213 1071.11 672.029 1071.74 672.406C1072.36 672.784 1073.18 672.58 1073.56 671.952C1073.93 671.324 1073.73 670.508 1073.1 670.13Z" fill="black"/>
<path id="Vector_29" d="M1052 663.845C1051.37 663.468 1050.56 663.671 1050.18 664.3C1049.8 664.928 1050.01 665.743 1050.63 666.121C1051.26 666.499 1052.08 666.295 1052.46 665.667C1052.83 665.038 1052.63 664.223 1052 663.845Z" fill="black"/>
<path id="Vector_30" d="M1029.83 657.633C1029.2 657.255 1028.38 657.459 1028 658.087C1027.63 658.716 1027.83 659.531 1028.46 659.909C1029.09 660.286 1029.9 660.083 1030.28 659.454C1030.66 658.826 1030.45 658.011 1029.83 657.633Z" fill="black"/>
<path id="Vector_31" d="M1006.48 651.255C1005.86 650.877 1005.04 651.081 1004.66 651.709C1004.29 652.338 1004.49 653.153 1005.12 653.531C1005.75 653.908 1006.56 653.705 1006.94 653.076C1007.32 652.448 1007.11 651.633 1006.48 651.255Z" fill="black"/>
<path id="Vector_32" d="M981.945 644.44C981.317 644.062 980.501 644.265 980.124 644.894C979.746 645.522 979.95 646.338 980.578 646.715C981.206 647.093 982.022 646.889 982.399 646.261C982.777 645.633 982.574 644.817 981.945 644.44Z" fill="black"/>
<path id="Vector_33" d="M956.253 636.886C955.624 636.508 954.809 636.712 954.431 637.34C954.054 637.969 954.257 638.784 954.885 639.162C955.514 639.539 956.329 639.336 956.707 638.707C957.084 638.079 956.881 637.263 956.253 636.886Z" fill="black"/>
<path id="Vector_34" d="M929.516 628.293C928.888 627.915 928.072 628.119 927.695 628.747C927.317 629.376 927.521 630.191 928.149 630.569C928.777 630.946 929.593 630.743 929.971 630.115C930.348 629.486 930.145 628.671 929.516 628.293Z" fill="black"/>
<path id="Vector_35" d="M901.943 618.375C901.315 617.998 900.499 618.201 900.122 618.829C899.744 619.458 899.948 620.273 900.576 620.651C901.204 621.028 902.02 620.825 902.398 620.197C902.775 619.568 902.572 618.753 901.943 618.375Z" fill="black"/>
<path id="Vector_36" d="M873.819 606.888C873.191 606.51 872.375 606.714 871.998 607.342C871.62 607.97 871.823 608.786 872.452 609.164C873.08 609.541 873.896 609.338 874.273 608.709C874.651 608.081 874.448 607.265 873.819 606.888Z" fill="black"/>
<path id="Vector_37" d="M1204.87 696.583C1204.24 696.206 1203.43 696.409 1203.05 697.037C1202.67 697.666 1202.87 698.481 1203.5 698.859C1204.13 699.236 1204.95 699.033 1205.32 698.405C1205.7 697.776 1205.5 696.961 1204.87 696.583Z" fill="black"/>
<path id="Vector_38" d="M1187.93 685.739C1187.3 685.361 1186.49 685.565 1186.11 686.193C1185.73 686.822 1185.93 687.637 1186.56 688.015C1187.19 688.392 1188.01 688.189 1188.38 687.56C1188.76 686.932 1188.56 686.116 1187.93 685.739Z" fill="black"/>
<path id="Vector_39" d="M1171.18 675.427C1170.55 675.049 1169.73 675.253 1169.36 675.881C1168.98 676.51 1169.18 677.325 1169.81 677.703C1170.44 678.08 1171.25 677.877 1171.63 677.248C1172.01 676.62 1171.81 675.804 1171.18 675.427Z" fill="black"/>
<path id="Vector_40" d="M1154.49 665.74C1153.86 665.362 1153.05 665.566 1152.67 666.194C1152.29 666.822 1152.5 667.638 1153.13 668.016C1153.75 668.393 1154.57 668.19 1154.95 667.561C1155.32 666.933 1155.12 666.117 1154.49 665.74Z" fill="black"/>
<path id="Vector_41" d="M1137.74 656.746C1137.11 656.369 1136.29 656.572 1135.92 657.2C1135.54 657.829 1135.74 658.644 1136.37 659.022C1137 659.399 1137.81 659.196 1138.19 658.568C1138.57 657.939 1138.37 657.124 1137.74 656.746Z" fill="black"/>
<path id="Vector_42" d="M1120.74 648.486C1120.11 648.109 1119.3 648.312 1118.92 648.941C1118.54 649.569 1118.75 650.385 1119.37 650.762C1120 651.14 1120.82 650.936 1121.2 650.308C1121.57 649.68 1121.37 648.864 1120.74 648.486Z" fill="black"/>
<path id="Vector_43" d="M1103.31 640.968C1102.68 640.59 1101.86 640.794 1101.49 641.422C1101.11 642.051 1101.31 642.866 1101.94 643.244C1102.57 643.621 1103.38 643.418 1103.76 642.789C1104.14 642.161 1103.94 641.345 1103.31 640.968Z" fill="black"/>
<path id="Vector_44" d="M1085.24 634.154C1084.61 633.776 1083.79 633.98 1083.42 634.608C1083.04 635.237 1083.24 636.052 1083.87 636.43C1084.5 636.807 1085.31 636.604 1085.69 635.975C1086.07 635.347 1085.87 634.531 1085.24 634.154Z" fill="black"/>
<path id="Vector_45" d="M1066.31 627.949C1065.69 627.572 1064.87 627.775 1064.49 628.404C1064.12 629.032 1064.32 629.847 1064.95 630.225C1065.58 630.603 1066.39 630.399 1066.77 629.771C1067.15 629.142 1066.94 628.327 1066.31 627.949Z" fill="black"/>
<path id="Vector_46" d="M1046.34 622.201C1045.71 621.824 1044.9 622.027 1044.52 622.655C1044.14 623.284 1044.35 624.099 1044.98 624.477C1045.6 624.855 1046.42 624.651 1046.8 624.023C1047.17 623.394 1046.97 622.579 1046.34 622.201Z" fill="black"/>
<path id="Vector_47" d="M1025.15 616.699C1024.52 616.322 1023.7 616.525 1023.33 617.154C1022.95 617.782 1023.15 618.597 1023.78 618.975C1024.41 619.353 1025.22 619.149 1025.6 618.521C1025.98 617.892 1025.78 617.077 1025.15 616.699Z" fill="black"/>
<path id="Vector_48" d="M1002.61 611.177C1001.98 610.8 1001.17 611.003 1000.79 611.632C1000.41 612.26 1000.61 613.076 1001.24 613.453C1001.87 613.831 1002.69 613.627 1003.06 612.999C1003.44 612.37 1003.24 611.555 1002.61 611.177Z" fill="black"/>
<path id="Vector_49" d="M978.663 605.316C978.035 604.939 977.219 605.142 976.841 605.771C976.464 606.399 976.667 607.215 977.296 607.592C977.924 607.97 978.74 607.766 979.117 607.138C979.495 606.51 979.291 605.694 978.663 605.316Z" fill="black"/>
<path id="Vector_50" d="M953.321 598.77C952.693 598.392 951.877 598.595 951.5 599.224C951.122 599.852 951.326 600.668 951.954 601.045C952.582 601.423 953.398 601.22 953.775 600.591C954.153 599.963 953.95 599.147 953.321 598.77Z" fill="black"/>
<path id="Vector_51" d="M926.704 591.177C926.075 590.799 925.26 591.003 924.882 591.631C924.505 592.26 924.708 593.075 925.337 593.453C925.965 593.83 926.78 593.627 927.158 592.998C927.536 592.37 927.332 591.554 926.704 591.177Z" fill="black"/>
<path id="Vector_52" d="M899.022 582.196C898.394 581.818 897.578 582.022 897.201 582.65C896.823 583.279 897.027 584.094 897.655 584.472C898.283 584.849 899.099 584.646 899.476 584.017C899.854 583.389 899.651 582.574 899.022 582.196Z" fill="black"/>
<path id="Vector_53" d="M1239.18 696.934C1238.56 696.557 1237.74 696.76 1237.36 697.388C1236.99 698.017 1237.19 698.832 1237.82 699.21C1238.45 699.587 1239.26 699.384 1239.64 698.756C1240.02 698.127 1239.81 697.312 1239.18 696.934Z" fill="black"/>
<path id="Vector_54" d="M1221.74 684.165C1221.11 683.787 1220.3 683.99 1219.92 684.619C1219.54 685.247 1219.75 686.063 1220.37 686.44C1221 686.818 1221.82 686.615 1222.2 685.986C1222.57 685.358 1222.37 684.542 1221.74 684.165Z" fill="black"/>
<path id="Vector_55" d="M1204.77 671.601C1204.14 671.224 1203.32 671.427 1202.94 672.055C1202.57 672.684 1202.77 673.499 1203.4 673.877C1204.03 674.254 1204.84 674.051 1205.22 673.423C1205.6 672.794 1205.39 671.979 1204.77 671.601Z" fill="black"/>
<path id="Vector_56" d="M1188.23 659.366C1187.6 658.988 1186.79 659.192 1186.41 659.82C1186.03 660.448 1186.23 661.264 1186.86 661.642C1187.49 662.019 1188.31 661.816 1188.68 661.187C1189.06 660.559 1188.86 659.743 1188.23 659.366Z" fill="black"/>
<path id="Vector_57" d="M1172.08 647.589C1171.45 647.212 1170.64 647.415 1170.26 648.044C1169.88 648.672 1170.08 649.488 1170.71 649.865C1171.34 650.243 1172.16 650.039 1172.53 649.411C1172.91 648.783 1172.71 647.967 1172.08 647.589Z" fill="black"/>
<path id="Vector_58" d="M1156.23 636.401C1155.61 636.023 1154.79 636.227 1154.41 636.855C1154.04 637.484 1154.24 638.299 1154.87 638.677C1155.5 639.054 1156.31 638.851 1156.69 638.222C1157.07 637.594 1156.86 636.779 1156.23 636.401Z" fill="black"/>
<path id="Vector_59" d="M1140.57 625.931C1139.95 625.553 1139.13 625.757 1138.75 626.385C1138.38 627.013 1138.58 627.829 1139.21 628.206C1139.84 628.584 1140.65 628.381 1141.03 627.752C1141.41 627.124 1141.2 626.308 1140.57 625.931Z" fill="black"/>
<path id="Vector_60" d="M1124.94 616.279C1124.31 615.902 1123.5 616.105 1123.12 616.734C1122.74 617.362 1122.95 618.178 1123.58 618.555C1124.2 618.933 1125.02 618.729 1125.4 618.101C1125.77 617.472 1125.57 616.657 1124.94 616.279Z" fill="black"/>
<path id="Vector_61" d="M1109.15 607.529C1108.52 607.152 1107.71 607.355 1107.33 607.984C1106.95 608.612 1107.16 609.428 1107.79 609.805C1108.41 610.183 1109.23 609.979 1109.61 609.351C1109.99 608.722 1109.78 607.907 1109.15 607.529Z" fill="black"/>
<path id="Vector_62" d="M1092.98 599.711C1092.35 599.333 1091.53 599.537 1091.16 600.165C1090.78 600.794 1090.98 601.609 1091.61 601.987C1092.24 602.364 1093.05 602.161 1093.43 601.533C1093.81 600.904 1093.6 600.089 1092.98 599.711Z" fill="black"/>
<path id="Vector_63" d="M1076.17 592.81C1075.54 592.432 1074.73 592.635 1074.35 593.264C1073.97 593.892 1074.18 594.708 1074.8 595.085C1075.43 595.463 1076.25 595.26 1076.63 594.631C1077 594.003 1076.8 593.187 1076.17 592.81Z" fill="black"/>
<path id="Vector_64" d="M1058.48 586.736C1057.85 586.358 1057.03 586.562 1056.65 587.19C1056.28 587.819 1056.48 588.634 1057.11 589.012C1057.74 589.389 1058.55 589.186 1058.93 588.557C1059.31 587.929 1059.1 587.114 1058.48 586.736Z" fill="black"/>
<path id="Vector_65" d="M1039.65 581.337C1039.02 580.959 1038.2 581.163 1037.83 581.791C1037.45 582.42 1037.65 583.235 1038.28 583.613C1038.91 583.99 1039.72 583.787 1040.1 583.159C1040.48 582.53 1040.28 581.715 1039.65 581.337Z" fill="black"/>
<path id="Vector_66" d="M1019.46 576.381C1018.83 576.003 1018.02 576.207 1017.64 576.835C1017.26 577.464 1017.47 578.279 1018.1 578.657C1018.72 579.034 1019.54 578.831 1019.92 578.202C1020.29 577.574 1020.09 576.759 1019.46 576.381Z" fill="black"/>
<path id="Vector_67" d="M997.754 571.566C997.125 571.188 996.31 571.392 995.932 572.02C995.555 572.649 995.758 573.464 996.386 573.842C997.015 574.219 997.83 574.016 998.208 573.388C998.585 572.759 998.382 571.944 997.754 571.566Z" fill="black"/>
<path id="Vector_68" d="M974.424 566.525C973.795 566.147 972.98 566.351 972.602 566.979C972.225 567.608 972.428 568.423 973.057 568.801C973.685 569.178 974.5 568.975 974.878 568.347C975.256 567.718 975.052 566.903 974.424 566.525Z" fill="black"/>
<path id="Vector_69" d="M949.467 560.86C948.838 560.482 948.023 560.685 947.645 561.314C947.268 561.942 947.471 562.758 948.099 563.135C948.728 563.513 949.543 563.309 949.921 562.681C950.299 562.053 950.095 561.237 949.467 560.86Z" fill="black"/>
<path id="Vector_70" d="M922.996 554.142C922.368 553.765 921.552 553.968 921.175 554.596C920.797 555.225 921 556.04 921.629 556.418C922.257 556.795 923.073 556.592 923.45 555.964C923.828 555.335 923.624 554.52 922.996 554.142Z" fill="black"/>
<path id="Vector_71" d="M1277.08 707.313C1276.45 706.935 1275.63 707.138 1275.25 707.767C1274.88 708.395 1275.08 709.211 1275.71 709.588C1276.34 709.966 1277.15 709.763 1277.53 709.134C1277.91 708.506 1277.7 707.69 1277.08 707.313Z" fill="black"/>
<path id="Vector_72" d="M1258.34 693.682C1257.71 693.305 1256.89 693.508 1256.52 694.136C1256.14 694.765 1256.34 695.58 1256.97 695.958C1257.6 696.336 1258.41 696.132 1258.79 695.504C1259.17 694.875 1258.97 694.06 1258.34 693.682Z" fill="black"/>
<path id="Vector_73" d="M1240.05 679.867C1239.43 679.49 1238.61 679.693 1238.23 680.322C1237.86 680.95 1238.06 681.765 1238.69 682.143C1239.32 682.521 1240.13 682.317 1240.51 681.689C1240.89 681.06 1240.68 680.245 1240.05 679.867Z" fill="black"/>
<path id="Vector_74" d="M1222.27 665.964C1221.65 665.586 1220.83 665.79 1220.45 666.418C1220.07 667.047 1220.28 667.862 1220.91 668.24C1221.53 668.617 1222.35 668.414 1222.73 667.785C1223.11 667.157 1222.9 666.342 1222.27 665.964Z" fill="black"/>
<path id="Vector_75" d="M1205.02 652.084C1204.4 651.706 1203.58 651.909 1203.2 652.538C1202.83 653.166 1203.03 653.982 1203.66 654.359C1204.29 654.737 1205.1 654.534 1205.48 653.905C1205.86 653.277 1205.65 652.461 1205.02 652.084Z" fill="black"/>
<path id="Vector_76" d="M1188.33 638.356C1187.7 637.978 1186.89 638.182 1186.51 638.81C1186.13 639.439 1186.34 640.254 1186.97 640.632C1187.59 641.009 1188.41 640.806 1188.79 640.178C1189.16 639.549 1188.96 638.734 1188.33 638.356Z" fill="black"/>
<path id="Vector_77" d="M1172.2 624.941C1171.57 624.563 1170.75 624.767 1170.38 625.395C1170 626.024 1170.2 626.839 1170.83 627.217C1171.46 627.594 1172.27 627.391 1172.65 626.763C1173.03 626.134 1172.83 625.319 1172.2 624.941Z" fill="black"/>
<path id="Vector_78" d="M1156.58 611.995C1155.96 611.617 1155.14 611.821 1154.76 612.449C1154.39 613.077 1154.59 613.893 1155.22 614.27C1155.85 614.648 1156.66 614.445 1157.04 613.816C1157.42 613.188 1157.21 612.372 1156.58 611.995Z" fill="black"/>
<path id="Vector_79" d="M1141.42 599.691C1140.79 599.313 1139.97 599.517 1139.6 600.145C1139.22 600.774 1139.42 601.589 1140.05 601.967C1140.68 602.344 1141.5 602.141 1141.87 601.513C1142.25 600.884 1142.05 600.069 1141.42 599.691Z" fill="black"/>
<path id="Vector_80" d="M1126.59 588.198C1125.96 587.82 1125.14 588.024 1124.77 588.652C1124.39 589.28 1124.59 590.096 1125.22 590.474C1125.85 590.851 1126.67 590.648 1127.04 590.019C1127.42 589.391 1127.22 588.575 1126.59 588.198Z" fill="black"/>
<path id="Vector_81" d="M1111.92 577.664C1111.3 577.286 1110.48 577.49 1110.1 578.118C1109.73 578.746 1109.93 579.562 1110.56 579.939C1111.19 580.317 1112 580.114 1112.38 579.485C1112.76 578.857 1112.55 578.041 1111.92 577.664Z" fill="black"/>
<path id="Vector_82" d="M1097.21 568.206C1096.58 567.829 1095.77 568.032 1095.39 568.66C1095.01 569.289 1095.22 570.104 1095.85 570.482C1096.47 570.859 1097.29 570.656 1097.67 570.028C1098.04 569.399 1097.84 568.584 1097.21 568.206Z" fill="black"/>
<path id="Vector_83" d="M1082.2 559.89C1081.57 559.512 1080.75 559.716 1080.37 560.344C1080 560.972 1080.2 561.788 1080.83 562.165C1081.46 562.543 1082.27 562.34 1082.65 561.711C1083.03 561.083 1082.82 560.267 1082.2 559.89Z" fill="black"/>
<path id="Vector_84" d="M1066.58 552.715C1065.95 552.338 1065.13 552.541 1064.75 553.17C1064.38 553.798 1064.58 554.614 1065.21 554.991C1065.84 555.369 1066.65 555.165 1067.03 554.537C1067.41 553.909 1067.2 553.093 1066.58 552.715Z" fill="black"/>
<path id="Vector_85" d="M1050.05 546.613C1049.43 546.235 1048.61 546.439 1048.23 547.067C1047.86 547.696 1048.06 548.511 1048.69 548.889C1049.32 549.266 1050.13 549.063 1050.51 548.434C1050.89 547.806 1050.68 546.99 1050.05 546.613Z" fill="black"/>
<path id="Vector_86" d="M1032.32 541.414C1031.69 541.037 1030.88 541.24 1030.5 541.868C1030.12 542.497 1030.32 543.312 1030.95 543.69C1031.58 544.067 1032.4 543.864 1032.77 543.236C1033.15 542.607 1032.95 541.792 1032.32 541.414Z" fill="black"/>
<path id="Vector_87" d="M1013.1 536.866C1012.47 536.489 1011.66 536.692 1011.28 537.321C1010.9 537.949 1011.11 538.764 1011.73 539.142C1012.36 539.52 1013.18 539.316 1013.56 538.688C1013.93 538.059 1013.73 537.244 1013.1 536.866Z" fill="black"/>
<path id="Vector_88" d="M992.181 532.63C991.553 532.252 990.738 532.456 990.36 533.084C989.982 533.713 990.186 534.528 990.814 534.906C991.443 535.283 992.258 535.08 992.636 534.451C993.013 533.823 992.81 533.008 992.181 532.63Z" fill="black"/>
<path id="Vector_89" d="M969.428 528.291C968.799 527.913 967.984 528.116 967.606 528.745C967.229 529.373 967.432 530.189 968.061 530.566C968.689 530.944 969.504 530.741 969.882 530.112C970.26 529.484 970.056 528.668 969.428 528.291Z" fill="black"/>
<path id="Vector_90" d="M944.823 523.377C944.195 523 943.379 523.203 943.002 523.831C942.624 524.46 942.827 525.275 943.456 525.653C944.084 526.03 944.9 525.827 945.277 525.199C945.655 524.57 945.452 523.755 944.823 523.377Z" fill="black"/>
<path id="Vector_91" d="M1263.29 681.922C1262.66 681.544 1261.85 681.748 1261.47 682.376C1261.09 683.005 1261.29 683.82 1261.92 684.198C1262.55 684.575 1263.37 684.372 1263.74 683.744C1264.12 683.115 1263.92 682.3 1263.29 681.922Z" fill="black"/>
<path id="Vector_92" d="M1244.28 667.345C1243.65 666.968 1242.83 667.171 1242.46 667.8C1242.08 668.428 1242.28 669.243 1242.91 669.621C1243.54 669.999 1244.36 669.795 1244.73 669.167C1245.11 668.538 1244.91 667.723 1244.28 667.345Z" fill="black"/>
<path id="Vector_93" d="M1225.72 652.488C1225.09 652.111 1224.27 652.314 1223.9 652.943C1223.52 653.571 1223.72 654.387 1224.35 654.764C1224.98 655.142 1225.79 654.938 1226.17 654.31C1226.55 653.681 1226.35 652.866 1225.72 652.488Z" fill="black"/>
<path id="Vector_94" d="M1207.69 637.446C1207.06 637.069 1206.25 637.272 1205.87 637.901C1205.49 638.529 1205.69 639.345 1206.32 639.722C1206.95 640.1 1207.77 639.896 1208.14 639.268C1208.52 638.639 1208.32 637.824 1207.69 637.446Z" fill="black"/>
<path id="Vector_95" d="M1190.27 622.35C1189.64 621.972 1188.83 622.176 1188.45 622.804C1188.07 623.432 1188.27 624.248 1188.9 624.625C1189.53 625.003 1190.35 624.8 1190.72 624.171C1191.1 623.543 1190.9 622.727 1190.27 622.35Z" fill="black"/>
<path id="Vector_96" d="M1173.52 607.345C1172.89 606.968 1172.07 607.171 1171.69 607.8C1171.32 608.428 1171.52 609.243 1172.15 609.621C1172.78 609.999 1173.59 609.795 1173.97 609.167C1174.35 608.538 1174.14 607.723 1173.52 607.345Z" fill="black"/>
<path id="Vector_97" d="M1157.47 592.623C1156.84 592.245 1156.02 592.448 1155.64 593.077C1155.27 593.705 1155.47 594.521 1156.1 594.898C1156.73 595.276 1157.54 595.073 1157.92 594.444C1158.3 593.816 1158.09 593 1157.47 592.623Z" fill="black"/>
<path id="Vector_98" d="M1142.1 578.376C1141.47 577.999 1140.65 578.202 1140.27 578.83C1139.9 579.459 1140.1 580.274 1140.73 580.652C1141.36 581.029 1142.17 580.826 1142.55 580.198C1142.93 579.569 1142.72 578.754 1142.1 578.376Z" fill="black"/>
<path id="Vector_99" d="M1127.36 564.817C1126.73 564.439 1125.91 564.643 1125.54 565.271C1125.16 565.9 1125.36 566.715 1125.99 567.093C1126.62 567.47 1127.43 567.267 1127.81 566.639C1128.19 566.01 1127.99 565.195 1127.36 564.817Z" fill="black"/>
<path id="Vector_100" d="M1113.13 552.163C1112.5 551.786 1111.69 551.989 1111.31 552.617C1110.93 553.246 1111.14 554.061 1111.77 554.439C1112.39 554.816 1113.21 554.613 1113.59 553.985C1113.96 553.356 1113.76 552.541 1113.13 552.163Z" fill="black"/>
<path id="Vector_101" d="M1099.24 540.607C1098.61 540.229 1097.8 540.432 1097.42 541.061C1097.04 541.689 1097.25 542.505 1097.88 542.882C1098.5 543.26 1099.32 543.057 1099.7 542.428C1100.07 541.8 1099.87 540.984 1099.24 540.607Z" fill="black"/>
<path id="Vector_102" d="M1085.45 530.305C1084.82 529.928 1084.01 530.131 1083.63 530.759C1083.25 531.388 1083.46 532.203 1084.08 532.581C1084.71 532.959 1085.53 532.755 1085.91 532.127C1086.28 531.498 1086.08 530.683 1085.45 530.305Z" fill="black"/>
<path id="Vector_103" d="M1071.45 521.364C1070.83 520.986 1070.01 521.19 1069.63 521.818C1069.26 522.447 1069.46 523.262 1070.09 523.64C1070.72 524.017 1071.53 523.814 1071.91 523.185C1072.29 522.557 1072.08 521.741 1071.45 521.364Z" fill="black"/>
<path id="Vector_104" d="M1056.91 513.81C1056.28 513.433 1055.46 513.636 1055.09 514.264C1054.71 514.893 1054.91 515.708 1055.54 516.086C1056.17 516.463 1056.98 516.26 1057.36 515.632C1057.74 515.003 1057.54 514.188 1056.91 513.81Z" fill="black"/>
<path id="Vector_105" d="M1041.45 507.573C1040.82 507.196 1040.01 507.399 1039.63 508.028C1039.25 508.656 1039.46 509.471 1040.08 509.849C1040.71 510.227 1041.53 510.023 1041.91 509.395C1042.28 508.766 1042.08 507.951 1041.45 507.573Z" fill="black"/>
<path id="Vector_106" d="M1024.71 502.484C1024.09 502.107 1023.27 502.31 1022.89 502.939C1022.51 503.567 1022.72 504.383 1023.35 504.76C1023.97 505.138 1024.79 504.934 1025.17 504.306C1025.55 503.678 1025.34 502.862 1024.71 502.484Z" fill="black"/>
<path id="Vector_107" d="M1006.37 498.256C1005.74 497.879 1004.92 498.082 1004.54 498.711C1004.17 499.339 1004.37 500.155 1005 500.532C1005.63 500.91 1006.44 500.706 1006.82 500.078C1007.2 499.45 1006.99 498.634 1006.37 498.256Z" fill="black"/>
<path id="Vector_108" d="M986.141 494.511C985.512 494.133 984.697 494.337 984.319 494.965C983.941 495.593 984.145 496.409 984.773 496.787C985.402 497.164 986.217 496.961 986.595 496.332C986.972 495.704 986.769 494.888 986.141 494.511Z" fill="black"/>
<path id="Vector_109" d="M963.868 490.764C963.24 490.387 962.424 490.59 962.047 491.218C961.669 491.847 961.872 492.662 962.501 493.04C963.129 493.418 963.945 493.214 964.322 492.586C964.7 491.957 964.497 491.142 963.868 490.764Z" fill="black"/>
<path id="Vector_110" d="M1268.42 672.397C1267.8 672.019 1266.98 672.222 1266.6 672.851C1266.22 673.479 1266.43 674.295 1267.06 674.672C1267.69 675.05 1268.5 674.847 1268.88 674.218C1269.26 673.59 1269.05 672.774 1268.42 672.397Z" fill="black"/>
<path id="Vector_111" d="M1249.81 657.191C1249.18 656.813 1248.37 657.017 1247.99 657.645C1247.61 658.274 1247.82 659.089 1248.44 659.467C1249.07 659.844 1249.89 659.641 1250.27 659.013C1250.64 658.384 1250.44 657.569 1249.81 657.191Z" fill="black"/>
<path id="Vector_112" d="M1232.03 641.846C1231.4 641.469 1230.58 641.672 1230.21 642.301C1229.83 642.929 1230.03 643.744 1230.66 644.122C1231.29 644.5 1232.1 644.296 1232.48 643.668C1232.86 643.039 1232.66 642.224 1232.03 641.846Z" fill="black"/>
<path id="Vector_113" d="M1214.42 626.386C1213.79 626.009 1212.97 626.212 1212.59 626.841C1212.22 627.469 1212.42 628.285 1213.05 628.662C1213.68 629.04 1214.49 628.836 1214.87 628.208C1215.25 627.579 1215.04 626.764 1214.42 626.386Z" fill="black"/>
<path id="Vector_114" d="M1195.77 610.245C1195.14 609.868 1194.32 610.071 1193.94 610.699C1193.57 611.328 1193.77 612.143 1194.4 612.521C1195.03 612.899 1195.84 612.695 1196.22 612.067C1196.6 611.438 1196.39 610.623 1195.77 610.245Z" fill="black"/>
<path id="Vector_115" d="M1177.81 593.954C1177.18 593.576 1176.36 593.78 1175.99 594.408C1175.61 595.036 1175.81 595.852 1176.44 596.229C1177.07 596.607 1177.89 596.404 1178.26 595.775C1178.64 595.147 1178.44 594.331 1177.81 593.954Z" fill="black"/>
<path id="Vector_116" d="M1160.66 577.682C1160.03 577.304 1159.22 577.508 1158.84 578.136C1158.46 578.764 1158.66 579.58 1159.29 579.957C1159.92 580.335 1160.74 580.132 1161.11 579.503C1161.49 578.875 1161.29 578.059 1160.66 577.682Z" fill="black"/>
<path id="Vector_117" d="M1144.38 561.635C1143.75 561.258 1142.93 561.461 1142.56 562.09C1142.18 562.718 1142.38 563.534 1143.01 563.911C1143.64 564.289 1144.45 564.085 1144.83 563.457C1145.21 562.828 1145.01 562.013 1144.38 561.635Z" fill="black"/>
<path id="Vector_118" d="M1128.98 546.057C1128.35 545.68 1127.53 545.883 1127.15 546.511C1126.78 547.14 1126.98 547.955 1127.61 548.333C1128.24 548.711 1129.05 548.507 1129.43 547.879C1129.81 547.25 1129.6 546.435 1128.98 546.057Z" fill="black"/>
<path id="Vector_119" d="M1114.42 531.202C1113.79 530.825 1112.97 531.028 1112.6 531.657C1112.22 532.285 1112.42 533.1 1113.05 533.478C1113.68 533.856 1114.49 533.652 1114.87 533.024C1115.25 532.395 1115.05 531.58 1114.42 531.202Z" fill="black"/>
<path id="Vector_120" d="M1100.59 517.335C1099.96 516.958 1099.14 517.161 1098.76 517.789C1098.39 518.418 1098.59 519.233 1099.22 519.611C1099.85 519.988 1100.66 519.785 1101.04 519.157C1101.42 518.528 1101.21 517.713 1100.59 517.335Z" fill="black"/>
<path id="Vector_121" d="M1087.29 504.705C1086.66 504.327 1085.85 504.531 1085.47 505.159C1085.09 505.787 1085.3 506.603 1085.92 506.98C1086.55 507.358 1087.37 507.155 1087.75 506.526C1088.12 505.898 1087.92 505.082 1087.29 504.705Z" fill="black"/>
<path id="Vector_122" d="M1074.25 493.516C1073.63 493.138 1072.81 493.342 1072.43 493.97C1072.06 494.598 1072.26 495.414 1072.89 495.791C1073.52 496.169 1074.33 495.966 1074.71 495.337C1075.09 494.709 1074.88 493.893 1074.25 493.516Z" fill="black"/>
<path id="Vector_123" d="M1061.14 483.913C1060.51 483.535 1059.69 483.739 1059.31 484.367C1058.94 484.995 1059.14 485.811 1059.77 486.188C1060.4 486.566 1061.21 486.363 1061.59 485.734C1061.97 485.106 1061.76 484.29 1061.14 483.913Z" fill="black"/>
<path id="Vector_124" d="M1047.53 475.944C1046.9 475.566 1046.09 475.769 1045.71 476.398C1045.33 477.026 1045.54 477.842 1046.17 478.219C1046.79 478.597 1047.61 478.393 1047.99 477.765C1048.36 477.137 1048.16 476.321 1047.53 475.944Z" fill="black"/>
<path id="Vector_125" d="M1033.01 469.548C1032.38 469.17 1031.57 469.373 1031.19 470.002C1030.81 470.63 1031.01 471.446 1031.64 471.823C1032.27 472.201 1033.09 471.997 1033.46 471.369C1033.84 470.741 1033.64 469.925 1033.01 469.548Z" fill="black"/>
<path id="Vector_126" d="M1017.13 464.534C1016.51 464.157 1015.69 464.36 1015.31 464.989C1014.93 465.617 1015.14 466.432 1015.77 466.81C1016.39 467.188 1017.21 466.984 1017.59 466.356C1017.97 465.727 1017.76 464.912 1017.13 464.534Z" fill="black"/>
<path id="Vector_127" d="M999.515 460.59C998.886 460.213 998.071 460.416 997.693 461.045C997.315 461.673 997.519 462.489 998.147 462.866C998.776 463.244 999.591 463.04 999.969 462.412C1000.35 461.784 1000.14 460.968 999.515 460.59Z" fill="black"/>
<path id="Vector_128" d="M979.833 457.272C979.204 456.895 978.389 457.098 978.011 457.726C977.634 458.355 977.837 459.17 978.465 459.548C979.094 459.925 979.909 459.722 980.287 459.094C980.665 458.465 980.461 457.65 979.833 457.272Z" fill="black"/>
<path id="Vector_129" d="M1270.64 670.282C1270.01 669.904 1269.2 670.108 1268.82 670.736C1268.44 671.364 1268.65 672.18 1269.28 672.558C1269.9 672.935 1270.72 672.732 1271.1 672.103C1271.47 671.475 1271.27 670.659 1270.64 670.282Z" fill="black"/>
<path id="Vector_130" d="M1250.41 653.345C1249.79 652.968 1248.97 653.171 1248.59 653.8C1248.21 654.428 1248.42 655.243 1249.05 655.621C1249.67 655.999 1250.49 655.795 1250.87 655.167C1251.25 654.538 1251.04 653.723 1250.41 653.345Z" fill="black"/>
<path id="Vector_131" d="M1231 635.724C1230.37 635.347 1229.56 635.55 1229.18 636.178C1228.8 636.807 1229.01 637.622 1229.63 638C1230.26 638.378 1231.08 638.174 1231.46 637.546C1231.83 636.917 1231.63 636.102 1231 635.724Z" fill="black"/>
<path id="Vector_132" d="M1212.61 617.684C1211.98 617.307 1211.17 617.51 1210.79 618.138C1210.41 618.767 1210.61 619.582 1211.24 619.96C1211.87 620.337 1212.69 620.134 1213.06 619.506C1213.44 618.877 1213.24 618.062 1212.61 617.684Z" fill="black"/>
<path id="Vector_133" d="M1195.4 599.573C1194.77 599.196 1193.95 599.399 1193.58 600.028C1193.2 600.656 1193.4 601.471 1194.03 601.849C1194.66 602.227 1195.48 602.023 1195.85 601.395C1196.23 600.766 1196.03 599.951 1195.4 599.573Z" fill="black"/>
<path id="Vector_134" d="M1179.44 581.813C1178.81 581.436 1178 581.639 1177.62 582.267C1177.24 582.896 1177.45 583.711 1178.07 584.089C1178.7 584.466 1179.52 584.263 1179.9 583.635C1180.27 583.006 1180.07 582.191 1179.44 581.813Z" fill="black"/>
<path id="Vector_135" d="M1164.68 564.864C1164.05 564.486 1163.24 564.69 1162.86 565.318C1162.48 565.947 1162.69 566.762 1163.32 567.14C1163.94 567.517 1164.76 567.314 1165.14 566.685C1165.51 566.057 1165.31 565.241 1164.68 564.864Z" fill="black"/>
<path id="Vector_136" d="M1149.75 548.524C1149.13 548.146 1148.31 548.349 1147.93 548.978C1147.56 549.606 1147.76 550.422 1148.39 550.799C1149.02 551.177 1149.83 550.973 1150.21 550.345C1150.59 549.717 1150.38 548.901 1149.75 548.524Z" fill="black"/>
<path id="Vector_137" d="M1132.98 531.235C1132.36 530.857 1131.54 531.06 1131.16 531.689C1130.79 532.317 1130.99 533.133 1131.62 533.51C1132.25 533.888 1133.06 533.684 1133.44 533.056C1133.82 532.428 1133.61 531.612 1132.98 531.235Z" fill="black"/>
<path id="Vector_138" d="M1117.33 514.375C1116.7 513.998 1115.88 514.201 1115.5 514.829C1115.13 515.458 1115.33 516.273 1115.96 516.651C1116.59 517.028 1117.4 516.825 1117.78 516.197C1118.16 515.568 1117.95 514.753 1117.33 514.375Z" fill="black"/>
<path id="Vector_139" d="M1102.75 498.262C1102.12 497.885 1101.31 498.088 1100.93 498.717C1100.55 499.345 1100.76 500.16 1101.38 500.538C1102.01 500.916 1102.83 500.712 1103.21 500.084C1103.58 499.455 1103.38 498.64 1102.75 498.262Z" fill="black"/>
<path id="Vector_140" d="M1089.15 483.219C1088.52 482.842 1087.7 483.045 1087.32 483.674C1086.95 484.302 1087.15 485.118 1087.78 485.495C1088.41 485.873 1089.22 485.669 1089.6 485.041C1089.98 484.412 1089.77 483.597 1089.15 483.219Z" fill="black"/>
<path id="Vector_141" d="M1076.29 469.547C1075.66 469.17 1074.85 469.373 1074.47 470.002C1074.09 470.63 1074.3 471.446 1074.92 471.823C1075.55 472.201 1076.37 471.997 1076.75 471.369C1077.12 470.741 1076.92 469.925 1076.29 469.547Z" fill="black"/>
<path id="Vector_142" d="M1063.88 457.508C1063.25 457.131 1062.44 457.334 1062.06 457.963C1061.68 458.591 1061.89 459.407 1062.51 459.784C1063.14 460.162 1063.96 459.958 1064.34 459.33C1064.71 458.701 1064.51 457.886 1063.88 457.508Z" fill="black"/>
<path id="Vector_143" d="M1051.51 447.28C1050.88 446.903 1050.07 447.106 1049.69 447.735C1049.31 448.363 1049.51 449.178 1050.14 449.556C1050.77 449.934 1051.59 449.73 1051.96 449.102C1052.34 448.473 1052.14 447.658 1051.51 447.28Z" fill="black"/>
<path id="Vector_144" d="M1038.71 438.941C1038.08 438.563 1037.27 438.767 1036.89 439.395C1036.51 440.024 1036.72 440.839 1037.34 441.217C1037.97 441.594 1038.79 441.391 1039.17 440.763C1039.54 440.134 1039.34 439.319 1038.71 438.941Z" fill="black"/>
<path id="Vector_145" d="M1024.98 432.423C1024.35 432.045 1023.53 432.248 1023.15 432.877C1022.78 433.505 1022.98 434.321 1023.61 434.698C1024.24 435.076 1025.05 434.872 1025.43 434.244C1025.81 433.616 1025.6 432.8 1024.98 432.423Z" fill="black"/>
<path id="Vector_146" d="M1009.8 427.521C1009.17 427.144 1008.36 427.347 1007.98 427.975C1007.6 428.604 1007.81 429.419 1008.44 429.797C1009.06 430.174 1009.88 429.971 1010.26 429.343C1010.63 428.714 1010.43 427.899 1009.8 427.521Z" fill="black"/>
<path id="Vector_147" d="M992.734 423.867C992.106 423.489 991.291 423.693 990.913 424.321C990.535 424.949 990.739 425.765 991.367 426.143C991.996 426.52 992.811 426.317 993.189 425.688C993.566 425.06 993.363 424.244 992.734 423.867Z" fill="black"/>
<path id="Vector_148" d="M1261.91 658.219C1261.28 657.842 1260.46 658.045 1260.09 658.674C1259.71 659.302 1259.91 660.118 1260.54 660.495C1261.17 660.873 1261.98 660.669 1262.36 660.041C1262.74 659.412 1262.54 658.597 1261.91 658.219Z" fill="black"/>
<path id="Vector_149" d="M1239.47 639.195C1238.85 638.817 1238.03 639.021 1237.65 639.649C1237.27 640.278 1237.48 641.093 1238.11 641.471C1238.73 641.848 1239.55 641.645 1239.93 641.016C1240.31 640.388 1240.1 639.573 1239.47 639.195Z" fill="black"/>
<path id="Vector_150" d="M1217.94 619.103C1217.31 618.725 1216.5 618.928 1216.12 619.557C1215.74 620.185 1215.94 621.001 1216.57 621.378C1217.2 621.756 1218.02 621.553 1218.39 620.924C1218.77 620.296 1218.57 619.48 1217.94 619.103Z" fill="black"/>
<path id="Vector_151" d="M1197.68 598.233C1197.05 597.855 1196.24 598.059 1195.86 598.687C1195.48 599.316 1195.69 600.131 1196.31 600.509C1196.94 600.886 1197.76 600.683 1198.14 600.055C1198.51 599.426 1198.31 598.611 1197.68 598.233Z" fill="black"/>
<path id="Vector_152" d="M1179.02 576.999C1178.39 576.622 1177.57 576.825 1177.2 577.453C1176.82 578.082 1177.02 578.897 1177.65 579.275C1178.28 579.652 1179.09 579.449 1179.47 578.821C1179.85 578.192 1179.65 577.377 1179.02 576.999Z" fill="black"/>
<path id="Vector_153" d="M1162.15 555.929C1161.52 555.551 1160.71 555.755 1160.33 556.383C1159.95 557.011 1160.16 557.827 1160.79 558.205C1161.41 558.582 1162.23 558.379 1162.61 557.75C1162.98 557.122 1162.78 556.306 1162.15 555.929Z" fill="black"/>
<path id="Vector_154" d="M1147.13 535.638C1146.51 535.26 1145.69 535.464 1145.31 536.092C1144.94 536.72 1145.14 537.536 1145.77 537.914C1146.4 538.291 1147.21 538.088 1147.59 537.459C1147.97 536.831 1147.76 536.015 1147.13 535.638Z" fill="black"/>
<path id="Vector_155" d="M1133.79 516.772C1133.16 516.395 1132.35 516.598 1131.97 517.226C1131.59 517.855 1131.79 518.67 1132.42 519.048C1133.05 519.425 1133.87 519.222 1134.24 518.594C1134.62 517.965 1134.42 517.15 1133.79 516.772Z" fill="black"/>
<path id="Vector_156" d="M1121.72 499.949C1121.09 499.572 1120.28 499.775 1119.9 500.404C1119.52 501.032 1119.72 501.847 1120.35 502.225C1120.98 502.603 1121.8 502.399 1122.17 501.771C1122.55 501.142 1122.35 500.327 1121.72 499.949Z" fill="black"/>
<path id="Vector_157" d="M1107.07 482.753C1106.44 482.375 1105.62 482.579 1105.25 483.207C1104.87 483.836 1105.07 484.651 1105.7 485.029C1106.33 485.406 1107.14 485.203 1107.52 484.575C1107.9 483.946 1107.7 483.131 1107.07 482.753Z" fill="black"/>
<path id="Vector_158" d="M1092.36 465.487C1091.73 465.109 1090.91 465.313 1090.54 465.941C1090.16 466.57 1090.36 467.385 1090.99 467.763C1091.62 468.14 1092.43 467.937 1092.81 467.308C1093.19 466.68 1092.99 465.865 1092.36 465.487Z" fill="black"/>
<path id="Vector_159" d="M1078.87 449.363C1078.24 448.985 1077.43 449.189 1077.05 449.817C1076.67 450.446 1076.87 451.261 1077.5 451.639C1078.13 452.016 1078.95 451.813 1079.32 451.184C1079.7 450.556 1079.5 449.741 1078.87 449.363Z" fill="black"/>
<path id="Vector_160" d="M1066.36 434.751C1065.73 434.374 1064.92 434.577 1064.54 435.205C1064.16 435.834 1064.37 436.649 1065 437.027C1065.62 437.404 1066.44 437.201 1066.82 436.573C1067.19 435.944 1066.99 435.129 1066.36 434.751Z" fill="black"/>
<path id="Vector_161" d="M1054.48 421.971C1053.85 421.594 1053.04 421.797 1052.66 422.426C1052.28 423.054 1052.48 423.869 1053.11 424.247C1053.74 424.625 1054.56 424.421 1054.93 423.793C1055.31 423.164 1055.11 422.349 1054.48 421.971Z" fill="black"/>
<path id="Vector_162" d="M1042.75 411.238C1042.12 410.861 1041.31 411.064 1040.93 411.693C1040.55 412.321 1040.76 413.137 1041.38 413.514C1042.01 413.892 1042.83 413.688 1043.21 413.06C1043.58 412.431 1043.38 411.616 1042.75 411.238Z" fill="black"/>
<path id="Vector_163" d="M1030.63 402.64C1030 402.263 1029.19 402.466 1028.81 403.094C1028.43 403.723 1028.64 404.538 1029.26 404.916C1029.89 405.294 1030.71 405.09 1031.09 404.462C1031.46 403.833 1031.26 403.018 1030.63 402.64Z" fill="black"/>
<path id="Vector_164" d="M1017.53 396.108C1016.9 395.73 1016.09 395.933 1015.71 396.562C1015.33 397.19 1015.54 398.006 1016.16 398.383C1016.79 398.761 1017.61 398.557 1017.99 397.929C1018.36 397.301 1018.16 396.485 1017.53 396.108Z" fill="black"/>
<path id="Vector_165" d="M1002.87 391.397C1002.24 391.019 1001.43 391.222 1001.05 391.851C1000.67 392.479 1000.88 393.295 1001.51 393.672C1002.13 394.05 1002.95 393.846 1003.33 393.218C1003.7 392.59 1003.5 391.774 1002.87 391.397Z" fill="black"/>
<path id="Vector_166" d="M1262.14 646.755C1261.51 646.377 1260.69 646.58 1260.32 647.209C1259.94 647.837 1260.14 648.653 1260.77 649.03C1261.4 649.408 1262.21 649.204 1262.59 648.576C1262.97 647.948 1262.77 647.132 1262.14 646.755Z" fill="black"/>
<path id="Vector_167" d="M1236.19 626.242C1235.56 625.864 1234.75 626.068 1234.37 626.696C1233.99 627.324 1234.19 628.14 1234.82 628.518C1235.45 628.895 1236.27 628.692 1236.64 628.063C1237.02 627.435 1236.82 626.619 1236.19 626.242Z" fill="black"/>
<path id="Vector_168" d="M1211.26 604.162C1210.64 603.784 1209.82 603.988 1209.44 604.616C1209.06 605.244 1209.27 606.06 1209.9 606.437C1210.52 606.815 1211.34 606.612 1211.72 605.983C1212.1 605.355 1211.89 604.539 1211.26 604.162Z" fill="black"/>
<path id="Vector_169" d="M1187.93 580.794C1187.3 580.416 1186.48 580.62 1186.11 581.248C1185.73 581.877 1185.93 582.692 1186.56 583.07C1187.19 583.447 1188 583.244 1188.38 582.616C1188.76 581.987 1188.56 581.172 1187.93 580.794Z" fill="black"/>
<path id="Vector_170" d="M1166.7 556.615C1166.07 556.238 1165.25 556.441 1164.87 557.07C1164.5 557.698 1164.7 558.513 1165.33 558.891C1165.96 559.269 1166.77 559.065 1167.15 558.437C1167.53 557.808 1167.32 556.993 1166.7 556.615Z" fill="black"/>
<path id="Vector_171" d="M1147.94 532.276C1147.31 531.898 1146.5 532.101 1146.12 532.73C1145.74 533.358 1145.95 534.174 1146.58 534.551C1147.2 534.929 1148.02 534.725 1148.4 534.097C1148.78 533.469 1148.57 532.653 1147.94 532.276Z" fill="black"/>
<path id="Vector_172" d="M1131.83 508.568C1131.2 508.19 1130.38 508.394 1130 509.022C1129.63 509.651 1129.83 510.466 1130.46 510.844C1131.09 511.221 1131.9 511.018 1132.28 510.389C1132.66 509.761 1132.45 508.946 1131.83 508.568Z" fill="black"/>
<path id="Vector_173" d="M1118.22 486.357C1117.59 485.98 1116.77 486.183 1116.4 486.811C1116.02 487.44 1116.22 488.255 1116.85 488.633C1117.48 489.01 1118.3 488.807 1118.67 488.179C1119.05 487.55 1118.85 486.735 1118.22 486.357Z" fill="black"/>
<path id="Vector_174" d="M1106.68 466.484C1106.05 466.106 1105.24 466.309 1104.86 466.938C1104.48 467.566 1104.69 468.382 1105.32 468.759C1105.94 469.137 1106.76 468.933 1107.14 468.305C1107.51 467.677 1107.31 466.861 1106.68 466.484Z" fill="black"/>
<path id="Vector_175" d="M1096.45 449.639C1095.82 449.261 1095.01 449.465 1094.63 450.093C1094.25 450.721 1094.46 451.537 1095.08 451.915C1095.71 452.292 1096.53 452.089 1096.91 451.46C1097.28 450.832 1097.08 450.016 1096.45 449.639Z" fill="black"/>
<path id="Vector_176" d="M1083.12 432.45C1082.49 432.073 1081.68 432.276 1081.3 432.905C1080.92 433.533 1081.13 434.348 1081.75 434.726C1082.38 435.104 1083.2 434.9 1083.58 434.272C1083.95 433.643 1083.75 432.828 1083.12 432.45Z" fill="black"/>
<path id="Vector_177" d="M1069.72 415.395C1069.1 415.018 1068.28 415.221 1067.9 415.849C1067.53 416.478 1067.73 417.293 1068.36 417.671C1068.99 418.048 1069.8 417.845 1070.18 417.217C1070.56 416.588 1070.35 415.773 1069.72 415.395Z" fill="black"/>
<path id="Vector_178" d="M1057.53 400.006C1056.9 399.628 1056.09 399.832 1055.71 400.46C1055.33 401.089 1055.54 401.904 1056.17 402.282C1056.79 402.659 1057.61 402.456 1057.99 401.827C1058.36 401.199 1058.16 400.384 1057.53 400.006Z" fill="black"/>
<path id="Vector_179" d="M1046.13 386.654C1045.5 386.277 1044.68 386.48 1044.31 387.109C1043.93 387.737 1044.13 388.553 1044.76 388.93C1045.39 389.308 1046.2 389.104 1046.58 388.476C1046.96 387.847 1046.76 387.032 1046.13 386.654Z" fill="black"/>
<path id="Vector_180" d="M1034.96 375.595C1034.33 375.218 1033.52 375.421 1033.14 376.05C1032.76 376.678 1032.97 377.493 1033.59 377.871C1034.22 378.249 1035.04 378.045 1035.42 377.417C1035.79 376.788 1035.59 375.973 1034.96 375.595Z" fill="black"/>
<path id="Vector_181" d="M1023.4 366.918C1022.77 366.541 1021.95 366.744 1021.58 367.372C1021.2 368.001 1021.4 368.816 1022.03 369.194C1022.66 369.571 1023.48 369.368 1023.85 368.74C1024.23 368.111 1024.03 367.296 1023.4 366.918Z" fill="black"/>
<path id="Vector_182" d="M1010.77 360.532C1010.14 360.155 1009.32 360.358 1008.95 360.986C1008.57 361.615 1008.77 362.43 1009.4 362.808C1010.03 363.186 1010.84 362.982 1011.22 362.354C1011.6 361.725 1011.4 360.91 1010.77 360.532Z" fill="black"/>
<path id="Vector_183" d="M1269.81 632.346C1269.18 631.969 1268.36 632.172 1267.98 632.801C1267.61 633.429 1267.81 634.244 1268.44 634.622C1269.07 635 1269.88 634.796 1270.26 634.168C1270.64 633.539 1270.43 632.724 1269.81 632.346Z" fill="black"/>
<path id="Vector_184" d="M1239.35 611.402C1238.73 611.025 1237.91 611.228 1237.53 611.857C1237.16 612.485 1237.36 613.301 1237.99 613.678C1238.62 614.056 1239.43 613.852 1239.81 613.224C1240.19 612.596 1239.98 611.78 1239.35 611.402Z" fill="black"/>
<path id="Vector_185" d="M1210.05 588.191C1209.42 587.813 1208.6 588.016 1208.22 588.645C1207.85 589.273 1208.05 590.089 1208.68 590.466C1209.31 590.844 1210.12 590.64 1210.5 590.012C1210.88 589.384 1210.67 588.568 1210.05 588.191Z" fill="black"/>
<path id="Vector_186" d="M1182.7 562.982C1182.07 562.604 1181.26 562.807 1180.88 563.436C1180.5 564.064 1180.7 564.88 1181.33 565.257C1181.96 565.635 1182.78 565.431 1183.15 564.803C1183.53 564.175 1183.33 563.359 1182.7 562.982Z" fill="black"/>
<path id="Vector_187" d="M1158.06 536.315C1157.43 535.937 1156.61 536.141 1156.24 536.769C1155.86 537.398 1156.06 538.213 1156.69 538.591C1157.32 538.968 1158.14 538.765 1158.51 538.137C1158.89 537.508 1158.69 536.693 1158.06 536.315Z" fill="black"/>
<path id="Vector_188" d="M1136.68 508.993C1136.06 508.616 1135.24 508.819 1134.86 509.448C1134.48 510.076 1134.69 510.891 1135.32 511.269C1135.94 511.647 1136.76 511.443 1137.14 510.815C1137.52 510.186 1137.31 509.371 1136.68 508.993Z" fill="black"/>
<path id="Vector_189" d="M1118.87 482.035C1118.24 481.658 1117.42 481.861 1117.05 482.489C1116.67 483.118 1116.87 483.933 1117.5 484.311C1118.13 484.689 1118.94 484.485 1119.32 483.857C1119.7 483.228 1119.5 482.413 1118.87 482.035Z" fill="black"/>
<path id="Vector_190" d="M1104.52 456.577C1103.89 456.199 1103.08 456.403 1102.7 457.031C1102.32 457.659 1102.53 458.475 1103.16 458.852C1103.78 459.23 1104.6 459.027 1104.98 458.398C1105.36 457.77 1105.15 456.954 1104.52 456.577Z" fill="black"/>
<path id="Vector_191" d="M1093.15 433.724C1092.52 433.347 1091.71 433.55 1091.33 434.178C1090.95 434.807 1091.16 435.622 1091.79 436C1092.41 436.378 1093.23 436.174 1093.61 435.546C1093.99 434.917 1093.78 434.102 1093.15 433.724Z" fill="black"/>
<path id="Vector_192" d="M1083.83 414.418C1083.21 414.041 1082.39 414.244 1082.01 414.872C1081.63 415.501 1081.84 416.316 1082.47 416.694C1083.09 417.071 1083.91 416.868 1084.29 416.24C1084.67 415.611 1084.46 414.796 1083.83 414.418Z" fill="black"/>
<path id="Vector_193" d="M1074.9 398.853C1074.28 398.475 1073.46 398.678 1073.08 399.307C1072.71 399.935 1072.91 400.751 1073.54 401.128C1074.17 401.506 1074.98 401.303 1075.36 400.674C1075.74 400.046 1075.53 399.23 1074.9 398.853Z" fill="black"/>
<path id="Vector_194" d="M1061.65 381.045C1061.02 380.668 1060.2 380.871 1059.83 381.499C1059.45 382.128 1059.65 382.943 1060.28 383.321C1060.91 383.698 1061.73 383.495 1062.1 382.867C1062.48 382.238 1062.28 381.423 1061.65 381.045Z" fill="black"/>
<path id="Vector_195" d="M1049.8 365.087C1049.17 364.709 1048.36 364.913 1047.98 365.541C1047.6 366.17 1047.8 366.985 1048.43 367.363C1049.06 367.74 1049.88 367.537 1050.25 366.909C1050.63 366.28 1050.43 365.465 1049.8 365.087Z" fill="black"/>
<path id="Vector_196" d="M1038.86 351.393C1038.23 351.016 1037.42 351.219 1037.04 351.847C1036.66 352.476 1036.86 353.291 1037.49 353.669C1038.12 354.046 1038.94 353.843 1039.31 353.215C1039.69 352.586 1039.49 351.771 1038.86 351.393Z" fill="black"/>
<path id="Vector_197" d="M1028.19 340.242C1027.56 339.865 1026.74 340.068 1026.37 340.697C1025.99 341.325 1026.19 342.14 1026.82 342.518C1027.45 342.896 1028.26 342.692 1028.64 342.064C1029.02 341.435 1028.82 340.62 1028.19 340.242Z" fill="black"/>
<path id="Vector_198" d="M1017.06 331.719C1016.43 331.342 1015.62 331.545 1015.24 332.174C1014.86 332.802 1015.07 333.618 1015.7 333.995C1016.32 334.373 1017.14 334.169 1017.52 333.541C1017.89 332.912 1017.69 332.097 1017.06 331.719Z" fill="black"/>
<path id="Vector_199" d="M1282.11 612.941C1281.48 612.563 1280.67 612.766 1280.29 613.395C1279.91 614.023 1280.11 614.839 1280.74 615.216C1281.37 615.594 1282.19 615.39 1282.56 614.762C1282.94 614.134 1282.74 613.318 1282.11 612.941Z" fill="black"/>
<path id="Vector_200" d="M1246.61 592.788C1245.98 592.41 1245.17 592.614 1244.79 593.242C1244.41 593.87 1244.61 594.686 1245.24 595.063C1245.87 595.441 1246.69 595.238 1247.06 594.609C1247.44 593.981 1247.24 593.165 1246.61 592.788Z" fill="black"/>
<path id="Vector_201" d="M1212.37 569.423C1211.74 569.045 1210.93 569.249 1210.55 569.877C1210.17 570.506 1210.37 571.321 1211 571.699C1211.63 572.076 1212.45 571.873 1212.82 571.244C1213.2 570.616 1213 569.801 1212.37 569.423Z" fill="black"/>
<path id="Vector_202" d="M1180.49 543.108C1179.86 542.73 1179.05 542.933 1178.67 543.562C1178.29 544.19 1178.49 545.006 1179.12 545.383C1179.75 545.761 1180.57 545.557 1180.94 544.929C1181.32 544.301 1181.12 543.485 1180.49 543.108Z" fill="black"/>
<path id="Vector_203" d="M1151.97 514.483C1151.34 514.105 1150.53 514.309 1150.15 514.937C1149.77 515.566 1149.98 516.381 1150.6 516.759C1151.23 517.136 1152.05 516.933 1152.43 516.305C1152.8 515.676 1152.6 514.861 1151.97 514.483Z" fill="black"/>
<path id="Vector_204" d="M1127.62 484.567C1126.99 484.19 1126.17 484.393 1125.8 485.022C1125.42 485.65 1125.62 486.466 1126.25 486.843C1126.88 487.221 1127.69 487.017 1128.07 486.389C1128.45 485.761 1128.25 484.945 1127.62 484.567Z" fill="black"/>
<path id="Vector_205" d="M1107.84 454.652C1107.21 454.274 1106.4 454.478 1106.02 455.106C1105.64 455.735 1105.85 456.55 1106.48 456.928C1107.1 457.305 1107.92 457.102 1108.3 456.473C1108.67 455.845 1108.47 455.03 1107.84 454.652Z" fill="black"/>
<path id="Vector_206" d="M1092.6 426.202C1091.97 425.824 1091.15 426.028 1090.78 426.656C1090.4 427.284 1090.6 428.1 1091.23 428.477C1091.86 428.855 1092.68 428.652 1093.05 428.023C1093.43 427.395 1093.23 426.579 1092.6 426.202Z" fill="black"/>
<path id="Vector_207" d="M1081.28 400.65C1080.65 400.272 1079.84 400.475 1079.46 401.104C1079.08 401.732 1079.28 402.548 1079.91 402.925C1080.54 403.303 1081.36 403.099 1081.73 402.471C1082.11 401.843 1081.91 401.027 1081.28 400.65Z" fill="black"/>
<path id="Vector_208" d="M1072.76 379.185C1072.13 378.807 1071.31 379.01 1070.94 379.639C1070.56 380.267 1070.76 381.083 1071.39 381.46C1072.02 381.838 1072.83 381.635 1073.21 381.006C1073.59 380.378 1073.39 379.562 1072.76 379.185Z" fill="black"/>
<path id="Vector_209" d="M1065.48 362.566C1064.85 362.188 1064.03 362.391 1063.65 363.02C1063.28 363.648 1063.48 364.464 1064.11 364.841C1064.74 365.219 1065.55 365.015 1065.93 364.387C1066.31 363.759 1066.1 362.943 1065.48 362.566Z" fill="black"/>
<path id="Vector_210" d="M1054.59 346.148C1053.96 345.771 1053.14 345.974 1052.76 346.602C1052.39 347.231 1052.59 348.046 1053.22 348.424C1053.85 348.801 1054.66 348.598 1055.04 347.97C1055.42 347.341 1055.21 346.526 1054.59 346.148Z" fill="black"/>
<path id="Vector_211" d="M1043.15 329.867C1042.53 329.49 1041.71 329.693 1041.33 330.322C1040.96 330.95 1041.16 331.765 1041.79 332.143C1042.42 332.521 1043.23 332.317 1043.61 331.689C1043.99 331.06 1043.78 330.245 1043.15 329.867Z" fill="black"/>
<path id="Vector_212" d="M1032.69 316.114C1032.06 315.737 1031.25 315.94 1030.87 316.569C1030.49 317.197 1030.69 318.013 1031.32 318.39C1031.95 318.768 1032.77 318.564 1033.14 317.936C1033.52 317.307 1033.32 316.492 1032.69 316.114Z" fill="black"/>
<path id="Vector_213" d="M1022.46 305.159C1021.83 304.781 1021.01 304.985 1020.64 305.613C1020.26 306.241 1020.46 307.057 1021.09 307.435C1021.72 307.812 1022.53 307.609 1022.91 306.98C1023.29 306.352 1023.09 305.536 1022.46 305.159Z" fill="black"/>
<path id="Vector_214" d="M1255.23 569.826C1254.6 569.449 1253.79 569.652 1253.41 570.28C1253.03 570.909 1253.23 571.724 1253.86 572.102C1254.49 572.48 1255.31 572.276 1255.68 571.648C1256.06 571.019 1255.86 570.204 1255.23 569.826Z" fill="black"/>
<path id="Vector_215" d="M1215.93 547.112C1215.3 546.735 1214.48 546.938 1214.11 547.567C1213.73 548.195 1213.93 549.011 1214.56 549.388C1215.19 549.766 1216.01 549.562 1216.38 548.934C1216.76 548.306 1216.56 547.49 1215.93 547.112Z" fill="black"/>
<path id="Vector_216" d="M1179.41 520.275C1178.78 519.897 1177.96 520.1 1177.58 520.729C1177.21 521.357 1177.41 522.173 1178.04 522.55C1178.67 522.928 1179.48 522.724 1179.86 522.096C1180.24 521.468 1180.03 520.652 1179.41 520.275Z" fill="black"/>
<path id="Vector_217" d="M1146.98 490.111C1146.35 489.733 1145.53 489.937 1145.16 490.565C1144.78 491.194 1144.98 492.009 1145.61 492.387C1146.24 492.764 1147.05 492.561 1147.43 491.932C1147.81 491.304 1147.61 490.489 1146.98 490.111Z" fill="black"/>
<path id="Vector_218" d="M1119.7 457.917C1119.07 457.539 1118.25 457.742 1117.87 458.371C1117.5 458.999 1117.7 459.815 1118.33 460.192C1118.96 460.57 1119.77 460.367 1120.15 459.738C1120.53 459.11 1120.32 458.294 1119.7 457.917Z" fill="black"/>
<path id="Vector_219" d="M1098.11 425.35C1097.48 424.972 1096.66 425.176 1096.28 425.804C1095.91 426.432 1096.11 427.248 1096.74 427.625C1097.37 428.003 1098.18 427.8 1098.56 427.171C1098.94 426.543 1098.73 425.727 1098.11 425.35Z" fill="black"/>
<path id="Vector_220" d="M1082.14 394.264C1081.52 393.886 1080.7 394.09 1080.32 394.718C1079.95 395.346 1080.15 396.162 1080.78 396.539C1081.41 396.917 1082.22 396.714 1082.6 396.085C1082.98 395.457 1082.77 394.641 1082.14 394.264Z" fill="black"/>
<path id="Vector_221" d="M1071.05 366.441C1070.42 366.064 1069.6 366.267 1069.23 366.895C1068.85 367.524 1069.05 368.339 1069.68 368.717C1070.31 369.094 1071.12 368.891 1071.5 368.263C1071.88 367.634 1071.68 366.819 1071.05 366.441Z" fill="black"/>
<path id="Vector_222" d="M1063.41 343.336C1062.78 342.958 1061.97 343.162 1061.59 343.79C1061.21 344.419 1061.41 345.234 1062.04 345.612C1062.67 345.989 1063.49 345.786 1063.86 345.158C1064.24 344.529 1064.04 343.714 1063.41 343.336Z" fill="black"/>
<path id="Vector_223" d="M1057.32 325.828C1056.69 325.45 1055.88 325.654 1055.5 326.282C1055.12 326.91 1055.33 327.726 1055.95 328.103C1056.58 328.481 1057.4 328.278 1057.78 327.649C1058.15 327.021 1057.95 326.205 1057.32 325.828Z" fill="black"/>
<path id="Vector_224" d="M1048.51 310.633C1047.88 310.255 1047.07 310.459 1046.69 311.087C1046.31 311.716 1046.52 312.531 1047.14 312.909C1047.77 313.286 1048.59 313.083 1048.97 312.454C1049.34 311.826 1049.14 311.01 1048.51 310.633Z" fill="black"/>
<path id="Vector_225" d="M1037.6 294.337C1036.97 293.96 1036.15 294.163 1035.77 294.791C1035.4 295.42 1035.6 296.235 1036.23 296.613C1036.86 296.99 1037.67 296.787 1038.05 296.159C1038.43 295.53 1038.22 294.715 1037.6 294.337Z" fill="black"/>
<path id="Vector_226" d="M1027.62 280.843C1027 280.466 1026.18 280.669 1025.8 281.298C1025.42 281.926 1025.63 282.741 1026.26 283.119C1026.88 283.497 1027.7 283.293 1028.08 282.665C1028.46 282.036 1028.25 281.221 1027.62 280.843Z" fill="black"/>
<path id="Vector_227" d="M1262.66 543.005C1262.04 542.627 1261.22 542.83 1260.84 543.459C1260.47 544.087 1260.67 544.903 1261.3 545.28C1261.93 545.658 1262.74 545.454 1263.12 544.826C1263.5 544.198 1263.29 543.382 1262.66 543.005Z" fill="black"/>
<path id="Vector_228" d="M1218.52 521.348C1217.89 520.97 1217.07 521.174 1216.69 521.802C1216.32 522.43 1216.52 523.246 1217.15 523.623C1217.78 524.001 1218.59 523.798 1218.97 523.169C1219.35 522.541 1219.14 521.725 1218.52 521.348Z" fill="black"/>
<path id="Vector_229" d="M1177.61 494.214C1176.99 493.836 1176.17 494.04 1175.79 494.668C1175.42 495.297 1175.62 496.112 1176.25 496.49C1176.88 496.867 1177.69 496.664 1178.07 496.036C1178.45 495.407 1178.24 494.592 1177.61 494.214Z" fill="black"/>
<path id="Vector_230" d="M1141.65 462.652C1141.02 462.274 1140.21 462.478 1139.83 463.106C1139.45 463.735 1139.65 464.55 1140.28 464.928C1140.91 465.305 1141.73 465.102 1142.1 464.473C1142.48 463.845 1142.28 463.03 1141.65 462.652Z" fill="black"/>
<path id="Vector_231" d="M1111.91 428.34C1111.28 427.963 1110.47 428.166 1110.09 428.795C1109.71 429.423 1109.92 430.239 1110.54 430.616C1111.17 430.994 1111.99 430.79 1112.37 430.162C1112.74 429.534 1112.54 428.718 1111.91 428.34Z" fill="black"/>
<path id="Vector_232" d="M1089.04 393.387C1088.42 393.009 1087.6 393.213 1087.22 393.841C1086.85 394.469 1087.05 395.285 1087.68 395.663C1088.31 396.04 1089.12 395.837 1089.5 395.208C1089.88 394.58 1089.67 393.764 1089.04 393.387Z" fill="black"/>
<path id="Vector_233" d="M1072.89 360.077C1072.26 359.7 1071.44 359.903 1071.07 360.531C1070.69 361.16 1070.89 361.975 1071.52 362.353C1072.15 362.731 1072.96 362.527 1073.34 361.899C1073.72 361.27 1073.52 360.455 1072.89 360.077Z" fill="black"/>
<path id="Vector_234" d="M1062.44 330.561C1061.81 330.183 1060.99 330.386 1060.61 331.015C1060.24 331.643 1060.44 332.459 1061.07 332.836C1061.7 333.214 1062.51 333.011 1062.89 332.382C1063.27 331.754 1063.06 330.938 1062.44 330.561Z" fill="black"/>
<path id="Vector_235" d="M1055.92 306.517C1055.29 306.14 1054.47 306.343 1054.09 306.971C1053.72 307.6 1053.92 308.415 1054.55 308.793C1055.18 309.17 1055.99 308.967 1056.37 308.339C1056.75 307.71 1056.54 306.895 1055.92 306.517Z" fill="black"/>
<path id="Vector_236" d="M1051 288.863C1050.37 288.485 1049.55 288.689 1049.18 289.317C1048.8 289.946 1049 290.761 1049.63 291.139C1050.26 291.516 1051.07 291.313 1051.45 290.684C1051.83 290.056 1051.63 289.24 1051 288.863Z" fill="black"/>
<path id="Vector_237" d="M1043.45 274.537C1042.82 274.159 1042.01 274.363 1041.63 274.991C1041.25 275.619 1041.46 276.435 1042.09 276.812C1042.71 277.19 1043.53 276.987 1043.91 276.358C1044.28 275.73 1044.08 274.914 1043.45 274.537Z" fill="black"/>
<path id="Vector_238" d="M1033.15 258.571C1032.52 258.194 1031.7 258.397 1031.33 259.026C1030.95 259.654 1031.15 260.47 1031.78 260.847C1032.41 261.225 1033.22 261.021 1033.6 260.393C1033.98 259.764 1033.78 258.949 1033.15 258.571Z" fill="black"/>
<path id="Vector_239" d="M1266.86 513.378C1266.23 513 1265.42 513.203 1265.04 513.832C1264.66 514.46 1264.86 515.276 1265.49 515.653C1266.12 516.031 1266.94 515.827 1267.31 515.199C1267.69 514.571 1267.49 513.755 1266.86 513.378Z" fill="black"/>
<path id="Vector_240" d="M1218.32 492.619C1217.69 492.242 1216.88 492.445 1216.5 493.073C1216.12 493.702 1216.32 494.517 1216.95 494.895C1217.58 495.273 1218.4 495.069 1218.77 494.441C1219.15 493.812 1218.95 492.997 1218.32 492.619Z" fill="black"/>
<path id="Vector_241" d="M1173.63 464.957C1173 464.58 1172.18 464.783 1171.81 465.411C1171.43 466.04 1171.63 466.855 1172.26 467.233C1172.89 467.61 1173.7 467.407 1174.08 466.779C1174.46 466.15 1174.26 465.335 1173.63 464.957Z" fill="black"/>
<path id="Vector_242" d="M1134.87 431.825C1134.24 431.448 1133.43 431.651 1133.05 432.28C1132.67 432.908 1132.88 433.723 1133.5 434.101C1134.13 434.479 1134.95 434.275 1135.33 433.647C1135.7 433.018 1135.5 432.203 1134.87 431.825Z" fill="black"/>
<path id="Vector_243" d="M1103.55 395.384C1102.92 395.007 1102.1 395.21 1101.73 395.839C1101.35 396.467 1101.55 397.283 1102.18 397.66C1102.81 398.038 1103.62 397.834 1104 397.206C1104.38 396.577 1104.18 395.762 1103.55 395.384Z" fill="black"/>
<path id="Vector_244" d="M1080.3 358.273C1079.67 357.895 1078.85 358.098 1078.48 358.727C1078.1 359.355 1078.3 360.171 1078.93 360.548C1079.56 360.926 1080.37 360.722 1080.75 360.094C1081.13 359.466 1080.93 358.65 1080.3 358.273Z" fill="black"/>
<path id="Vector_245" d="M1064.76 323.254C1064.13 322.876 1063.31 323.079 1062.94 323.708C1062.56 324.336 1062.76 325.152 1063.39 325.529C1064.02 325.907 1064.84 325.703 1065.21 325.075C1065.59 324.447 1065.39 323.631 1064.76 323.254Z" fill="black"/>
<path id="Vector_246" d="M1055.55 292.791C1054.92 292.414 1054.1 292.617 1053.73 293.245C1053.35 293.874 1053.55 294.689 1054.18 295.067C1054.81 295.444 1055.62 295.241 1056 294.613C1056.38 293.984 1056.18 293.169 1055.55 292.791Z" fill="black"/>
<path id="Vector_247" d="M1050.43 268.697C1049.8 268.32 1048.98 268.523 1048.6 269.152C1048.23 269.78 1048.43 270.595 1049.06 270.973C1049.69 271.351 1050.5 271.147 1050.88 270.519C1051.26 269.89 1051.05 269.075 1050.43 268.697Z" fill="black"/>
<path id="Vector_248" d="M1046.61 251.784C1045.98 251.406 1045.16 251.61 1044.78 252.238C1044.41 252.866 1044.61 253.682 1045.24 254.06C1045.87 254.437 1046.68 254.234 1047.06 253.605C1047.44 252.977 1047.23 252.161 1046.61 251.784Z" fill="black"/>
<path id="Vector_249" d="M1039.47 238.009C1038.85 237.632 1038.03 237.835 1037.65 238.464C1037.28 239.092 1037.48 239.907 1038.11 240.285C1038.74 240.663 1039.55 240.459 1039.93 239.831C1040.31 239.202 1040.1 238.387 1039.47 238.009Z" fill="black"/>
<path id="Vector_250" d="M1266.35 482.052C1265.72 481.675 1264.91 481.878 1264.53 482.507C1264.15 483.135 1264.36 483.951 1264.99 484.328C1265.61 484.706 1266.43 484.502 1266.81 483.874C1267.18 483.245 1266.98 482.43 1266.35 482.052Z" fill="black"/>
<path id="Vector_251" d="M1214.03 461.429C1213.41 461.051 1212.59 461.255 1212.21 461.883C1211.84 462.511 1212.04 463.327 1212.67 463.705C1213.3 464.082 1214.11 463.879 1214.49 463.25C1214.87 462.622 1214.66 461.806 1214.03 461.429Z" fill="black"/>
<path id="Vector_252" d="M1166.44 432.554C1165.81 432.177 1164.99 432.38 1164.61 433.008C1164.24 433.637 1164.44 434.452 1165.07 434.83C1165.7 435.208 1166.51 435.004 1166.89 434.376C1167.27 433.747 1167.06 432.932 1166.44 432.554Z" fill="black"/>
<path id="Vector_253" d="M1126 397.395C1125.37 397.018 1124.55 397.221 1124.18 397.849C1123.8 398.478 1124 399.293 1124.63 399.671C1125.26 400.048 1126.07 399.845 1126.45 399.217C1126.83 398.588 1126.63 397.773 1126 397.395Z" fill="black"/>
<path id="Vector_254" d="M1094.32 358.721C1093.69 358.344 1092.88 358.547 1092.5 359.176C1092.12 359.804 1092.32 360.619 1092.95 360.997C1093.58 361.375 1094.4 361.171 1094.77 360.543C1095.15 359.914 1094.95 359.099 1094.32 358.721Z" fill="black"/>
<path id="Vector_255" d="M1071.88 319.755C1071.26 319.377 1070.44 319.581 1070.06 320.209C1069.69 320.838 1069.89 321.653 1070.52 322.031C1071.15 322.408 1071.96 322.205 1072.34 321.577C1072.72 320.948 1072.51 320.133 1071.88 319.755Z" fill="black"/>
<path id="Vector_256" d="M1057.95 283.697C1057.32 283.319 1056.51 283.523 1056.13 284.151C1055.75 284.78 1055.96 285.595 1056.59 285.973C1057.21 286.35 1058.03 286.147 1058.41 285.518C1058.78 284.89 1058.58 284.074 1057.95 283.697Z" fill="black"/>
<path id="Vector_257" d="M1050.62 253.247C1049.99 252.869 1049.18 253.072 1048.8 253.701C1048.42 254.329 1048.62 255.145 1049.25 255.522C1049.88 255.9 1050.7 255.697 1051.07 255.068C1051.45 254.44 1051.25 253.624 1050.62 253.247Z" fill="black"/>
<path id="Vector_258" d="M1047.09 230.158C1046.46 229.781 1045.65 229.984 1045.27 230.612C1044.89 231.241 1045.1 232.056 1045.72 232.434C1046.35 232.812 1047.17 232.608 1047.55 231.98C1047.92 231.351 1047.72 230.536 1047.09 230.158Z" fill="black"/>
<path id="Vector_259" d="M1044.12 214.971C1043.49 214.594 1042.67 214.797 1042.3 215.425C1041.92 216.054 1042.12 216.869 1042.75 217.247C1043.38 217.625 1044.2 217.421 1044.57 216.793C1044.95 216.164 1044.75 215.349 1044.12 214.971Z" fill="black"/>
<path id="Vector_260" d="M1260.18 449.722C1259.55 449.345 1258.74 449.548 1258.36 450.177C1257.98 450.805 1258.19 451.62 1258.82 451.998C1259.44 452.376 1260.26 452.172 1260.64 451.544C1261.01 450.915 1260.81 450.1 1260.18 449.722Z" fill="black"/>
<path id="Vector_261" d="M1204.92 427.936C1204.29 427.559 1203.47 427.762 1203.1 428.39C1202.72 429.019 1202.92 429.834 1203.55 430.212C1204.18 430.589 1204.99 430.386 1205.37 429.758C1205.75 429.129 1205.55 428.314 1204.92 427.936Z" fill="black"/>
<path id="Vector_262" d="M1155.63 396.829C1155 396.452 1154.19 396.655 1153.81 397.283C1153.43 397.912 1153.64 398.727 1154.26 399.105C1154.89 399.482 1155.71 399.279 1156.09 398.651C1156.46 398.022 1156.26 397.207 1155.63 396.829Z" fill="black"/>
<path id="Vector_263" d="M1114.99 359.067C1114.36 358.689 1113.54 358.893 1113.17 359.521C1112.79 360.15 1112.99 360.965 1113.62 361.343C1114.25 361.72 1115.06 361.517 1115.44 360.889C1115.82 360.26 1115.62 359.445 1114.99 359.067Z" fill="black"/>
<path id="Vector_264" d="M1084.5 318.133C1083.87 317.756 1083.05 317.959 1082.67 318.588C1082.3 319.216 1082.5 320.032 1083.13 320.409C1083.76 320.787 1084.57 320.583 1084.95 319.955C1085.33 319.327 1085.12 318.511 1084.5 318.133Z" fill="black"/>
<path id="Vector_265" d="M1064.26 277.824C1063.63 277.447 1062.81 277.65 1062.43 278.279C1062.06 278.907 1062.26 279.722 1062.89 280.1C1063.52 280.478 1064.33 280.274 1064.71 279.646C1065.09 279.017 1064.88 278.202 1064.26 277.824Z" fill="black"/>
<path id="Vector_266" d="M1052.94 241.677C1052.31 241.299 1051.5 241.503 1051.12 242.131C1050.74 242.759 1050.95 243.575 1051.57 243.953C1052.2 244.33 1053.02 244.127 1053.4 243.498C1053.77 242.87 1053.57 242.054 1052.94 241.677Z" fill="black"/>
<path id="Vector_267" d="M1047.99 212.416C1047.36 212.038 1046.54 212.241 1046.16 212.87C1045.79 213.498 1045.99 214.314 1046.62 214.691C1047.25 215.069 1048.06 214.866 1048.44 214.237C1048.82 213.609 1048.61 212.793 1047.99 212.416Z" fill="black"/>
<path id="Vector_268" d="M1045.99 191.531C1045.36 191.153 1044.55 191.357 1044.17 191.985C1043.79 192.613 1044 193.429 1044.63 193.807C1045.25 194.184 1046.07 193.981 1046.45 193.352C1046.82 192.724 1046.62 191.908 1045.99 191.531Z" fill="black"/>
<path id="Vector_269" d="M1247.87 416.368C1247.24 415.991 1246.43 416.194 1246.05 416.823C1245.67 417.451 1245.88 418.266 1246.5 418.644C1247.13 419.022 1247.95 418.818 1248.33 418.19C1248.7 417.561 1248.5 416.746 1247.87 416.368Z" fill="black"/>
<path id="Vector_270" d="M1190.82 391.754C1190.19 391.376 1189.38 391.58 1189 392.208C1188.62 392.837 1188.83 393.652 1189.46 394.03C1190.08 394.407 1190.9 394.204 1191.28 393.575C1191.65 392.947 1191.45 392.132 1190.82 391.754Z" fill="black"/>
<path id="Vector_271" d="M1141.47 357.292C1140.84 356.915 1140.03 357.118 1139.65 357.746C1139.27 358.375 1139.48 359.19 1140.11 359.568C1140.73 359.945 1141.55 359.742 1141.93 359.114C1142.3 358.485 1142.1 357.67 1141.47 357.292Z" fill="black"/>
<path id="Vector_272" d="M1102.46 316.491C1101.83 316.113 1101.01 316.317 1100.64 316.945C1100.26 317.574 1100.46 318.389 1101.09 318.767C1101.72 319.144 1102.53 318.941 1102.91 318.312C1103.29 317.684 1103.09 316.868 1102.46 316.491Z" fill="black"/>
<path id="Vector_273" d="M1074.9 273.572C1074.27 273.195 1073.45 273.398 1073.08 274.027C1072.7 274.655 1072.9 275.471 1073.53 275.848C1074.16 276.226 1074.98 276.022 1075.35 275.394C1075.73 274.765 1075.53 273.95 1074.9 273.572Z" fill="black"/>
<path id="Vector_274" d="M1058.24 232.809C1057.61 232.431 1056.79 232.634 1056.42 233.263C1056.04 233.891 1056.24 234.707 1056.87 235.084C1057.5 235.462 1058.31 235.259 1058.69 234.63C1059.07 234.002 1058.87 233.186 1058.24 232.809Z" fill="black"/>
<path id="Vector_275" d="M1050.35 197.855C1049.72 197.477 1048.91 197.68 1048.53 198.309C1048.15 198.937 1048.36 199.753 1048.99 200.13C1049.61 200.508 1050.43 200.305 1050.81 199.676C1051.19 199.048 1050.98 198.232 1050.35 197.855Z" fill="black"/>
<path id="Vector_276" d="M1047.92 171.18C1047.29 170.802 1046.48 171.006 1046.1 171.634C1045.72 172.262 1045.93 173.078 1046.55 173.456C1047.18 173.833 1048 173.63 1048.38 173.001C1048.75 172.373 1048.55 171.557 1047.92 171.18Z" fill="black"/>
<path id="Vector_277" d="M1229.45 381.124C1228.82 380.746 1228.01 380.949 1227.63 381.578C1227.25 382.206 1227.46 383.022 1228.09 383.399C1228.71 383.777 1229.53 383.574 1229.91 382.945C1230.28 382.317 1230.08 381.501 1229.45 381.124Z" fill="black"/>
<path id="Vector_278" d="M1172.31 351.966C1171.68 351.588 1170.86 351.792 1170.49 352.42C1170.11 353.049 1170.31 353.864 1170.94 354.242C1171.57 354.619 1172.38 354.416 1172.76 353.787C1173.14 353.159 1172.94 352.344 1172.31 351.966Z" fill="black"/>
<path id="Vector_279" d="M1124.96 313.253C1124.33 312.875 1123.51 313.078 1123.14 313.707C1122.76 314.335 1122.96 315.151 1123.59 315.528C1124.22 315.906 1125.04 315.702 1125.41 315.074C1125.79 314.446 1125.59 313.63 1124.96 313.253Z" fill="black"/>
<path id="Vector_280" d="M1089.67 269.427C1089.04 269.049 1088.23 269.253 1087.85 269.881C1087.47 270.509 1087.68 271.325 1088.3 271.703C1088.93 272.08 1089.75 271.877 1090.13 271.248C1090.5 270.62 1090.3 269.804 1089.67 269.427Z" fill="black"/>
<path id="Vector_281" d="M1066.8 225.344C1066.17 224.967 1065.36 225.17 1064.98 225.799C1064.6 226.427 1064.81 227.242 1065.43 227.62C1066.06 227.998 1066.88 227.794 1067.26 227.166C1067.63 226.537 1067.43 225.722 1066.8 225.344Z" fill="black"/>
<path id="Vector_282" d="M1054.85 185.507C1054.22 185.129 1053.41 185.333 1053.03 185.961C1052.65 186.59 1052.86 187.405 1053.49 187.783C1054.11 188.16 1054.93 187.957 1055.31 187.328C1055.68 186.7 1055.48 185.885 1054.85 185.507Z" fill="black"/>
<path id="Vector_283" d="M1050.76 153.353C1050.13 152.976 1049.32 153.179 1048.94 153.807C1048.56 154.436 1048.77 155.251 1049.39 155.629C1050.02 156.006 1050.84 155.803 1051.22 155.175C1051.59 154.546 1051.39 153.731 1050.76 153.353Z" fill="black"/>
<path id="Vector_284" d="M1269.3 364.813C1268.67 364.436 1267.85 364.639 1267.48 365.267C1267.1 365.896 1267.3 366.711 1267.93 367.089C1268.56 367.466 1269.37 367.263 1269.75 366.635C1270.13 366.006 1269.93 365.191 1269.3 364.813Z" fill="black"/>
<path id="Vector_285" d="M1205.7 342.4C1205.07 342.023 1204.25 342.226 1203.87 342.854C1203.5 343.483 1203.7 344.298 1204.33 344.676C1204.96 345.053 1205.77 344.85 1206.15 344.222C1206.53 343.593 1206.32 342.778 1205.7 342.4Z" fill="black"/>
<path id="Vector_286" d="M1150.74 307.35C1150.11 306.973 1149.3 307.176 1148.92 307.804C1148.54 308.433 1148.75 309.248 1149.38 309.626C1150 310.004 1150.82 309.8 1151.2 309.172C1151.57 308.543 1151.37 307.728 1150.74 307.35Z" fill="black"/>
<path id="Vector_287" d="M1107.86 264.144C1107.23 263.767 1106.41 263.97 1106.04 264.598C1105.66 265.227 1105.86 266.042 1106.49 266.42C1107.12 266.797 1107.94 266.594 1108.31 265.966C1108.69 265.337 1108.49 264.522 1107.86 264.144Z" fill="black"/>
<path id="Vector_288" d="M1078.44 218.059C1077.81 217.682 1076.99 217.885 1076.62 218.513C1076.24 219.142 1076.44 219.957 1077.07 220.335C1077.7 220.712 1078.51 220.509 1078.89 219.881C1079.27 219.252 1079.07 218.437 1078.44 218.059Z" fill="black"/>
<path id="Vector_289" d="M1061.72 174.321C1061.09 173.944 1060.28 174.147 1059.9 174.776C1059.52 175.404 1059.73 176.22 1060.35 176.597C1060.98 176.975 1061.8 176.771 1062.18 176.143C1062.55 175.515 1062.35 174.699 1061.72 174.321Z" fill="black"/>
<path id="Vector_290" d="M1055.05 137.272C1054.42 136.894 1053.61 137.098 1053.23 137.726C1052.85 138.355 1053.06 139.17 1053.69 139.548C1054.31 139.925 1055.13 139.722 1055.51 139.094C1055.88 138.465 1055.68 137.65 1055.05 137.272Z" fill="black"/>
<path id="Vector_291" d="M1239.81 328.599C1239.18 328.222 1238.36 328.425 1237.98 329.053C1237.61 329.682 1237.81 330.497 1238.44 330.875C1239.07 331.252 1239.88 331.049 1240.26 330.421C1240.64 329.792 1240.43 328.977 1239.81 328.599Z" fill="black"/>
<path id="Vector_292" d="M1178.32 298.271C1177.69 297.893 1176.87 298.096 1176.5 298.725C1176.12 299.353 1176.32 300.169 1176.95 300.546C1177.58 300.924 1178.39 300.721 1178.77 300.092C1179.15 299.464 1178.95 298.648 1178.32 298.271Z" fill="black"/>
<path id="Vector_293" d="M1128.43 256.863C1127.8 256.486 1126.98 256.689 1126.6 257.318C1126.23 257.946 1126.43 258.762 1127.06 259.139C1127.69 259.517 1128.5 259.313 1128.88 258.685C1129.26 258.056 1129.05 257.241 1128.43 256.863Z" fill="black"/>
<path id="Vector_294" d="M1092.57 209.932C1091.94 209.554 1091.12 209.757 1090.75 210.386C1090.37 211.014 1090.57 211.83 1091.2 212.207C1091.83 212.585 1092.64 212.382 1093.02 211.753C1093.4 211.125 1093.2 210.309 1092.57 209.932Z" fill="black"/>
<path id="Vector_295" d="M1070.82 163.298C1070.19 162.921 1069.38 163.124 1069 163.753C1068.62 164.381 1068.83 165.197 1069.46 165.574C1070.08 165.952 1070.9 165.748 1071.28 165.12C1071.65 164.492 1071.45 163.676 1070.82 163.298Z" fill="black"/>
<path id="Vector_296" d="M1061.03 122.099C1060.4 121.722 1059.58 121.925 1059.21 122.553C1058.83 123.182 1059.03 123.997 1059.66 124.375C1060.29 124.753 1061.1 124.549 1061.48 123.921C1061.86 123.292 1061.66 122.477 1061.03 122.099Z" fill="black"/>
<path id="Vector_297" d="M1272.98 311.161C1272.35 310.783 1271.54 310.987 1271.16 311.615C1270.78 312.243 1270.99 313.059 1271.61 313.436C1272.24 313.814 1273.06 313.611 1273.44 312.982C1273.81 312.354 1273.61 311.538 1272.98 311.161Z" fill="black"/>
<path id="Vector_298" d="M1206.17 285.994C1205.54 285.616 1204.73 285.82 1204.35 286.448C1203.97 287.076 1204.18 287.892 1204.8 288.269C1205.43 288.647 1206.25 288.444 1206.63 287.815C1207 287.187 1206.8 286.371 1206.17 285.994Z" fill="black"/>
<path id="Vector_299" d="M1150.16 247.117C1149.53 246.739 1148.71 246.943 1148.33 247.571C1147.96 248.199 1148.16 249.015 1148.79 249.393C1149.42 249.77 1150.23 249.567 1150.61 248.938C1150.99 248.31 1150.78 247.494 1150.16 247.117Z" fill="black"/>
<path id="Vector_300" d="M1108.38 200.215C1107.75 199.838 1106.94 200.041 1106.56 200.67C1106.18 201.298 1106.39 202.114 1107.01 202.491C1107.64 202.869 1108.46 202.665 1108.84 202.037C1109.21 201.409 1109.01 200.593 1108.38 200.215Z" fill="black"/>
<path id="Vector_301" d="M1081.76 151.572C1081.13 151.194 1080.31 151.398 1079.93 152.026C1079.56 152.655 1079.76 153.47 1080.39 153.848C1081.02 154.225 1081.83 154.022 1082.21 153.393C1082.59 152.765 1082.38 151.949 1081.76 151.572Z" fill="black"/>
<path id="Vector_302" d="M1068.66 107.007C1068.03 106.629 1067.22 106.833 1066.84 107.461C1066.46 108.09 1066.66 108.905 1067.29 109.283C1067.92 109.66 1068.74 109.457 1069.11 108.828C1069.49 108.2 1069.29 107.385 1068.66 107.007Z" fill="black"/>
<path id="Vector_303" d="M1276.13 330.987C1275.51 330.609 1274.69 330.813 1274.31 331.441C1273.93 332.07 1274.14 332.885 1274.77 333.263C1275.39 333.64 1276.21 333.437 1276.59 332.808C1276.97 332.18 1276.76 331.365 1276.13 330.987Z" fill="black"/>
<path id="Vector_304" d="M1263.3 256.137C1262.67 255.76 1261.86 255.963 1261.48 256.592C1261.1 257.22 1261.3 258.035 1261.93 258.413C1262.56 258.791 1263.38 258.587 1263.75 257.959C1264.13 257.33 1263.93 256.515 1263.3 256.137Z" fill="black"/>
<path id="Vector_305" d="M1269.75 177.693C1269.12 177.316 1268.31 177.519 1267.93 178.148C1267.55 178.776 1267.75 179.592 1268.38 179.969C1269.01 180.347 1269.83 180.143 1270.2 179.515C1270.58 178.887 1270.38 178.071 1269.75 177.693Z" fill="black"/>
<path id="Vector_306" d="M1232.93 270.905C1232.31 270.527 1231.49 270.731 1231.11 271.359C1230.73 271.988 1230.94 272.803 1231.57 273.181C1232.19 273.558 1233.01 273.355 1233.39 272.726C1233.77 272.098 1233.56 271.282 1232.93 270.905Z" fill="black"/>
<path id="Vector_307" d="M1171.85 234.777C1171.22 234.399 1170.4 234.603 1170.03 235.231C1169.65 235.86 1169.85 236.675 1170.48 237.053C1171.11 237.43 1171.93 237.227 1172.3 236.598C1172.68 235.97 1172.48 235.155 1171.85 234.777Z" fill="black"/>
<path id="Vector_308" d="M1124.97 188.424C1124.34 188.047 1123.52 188.25 1123.14 188.879C1122.77 189.507 1122.97 190.323 1123.6 190.7C1124.23 191.078 1125.04 190.874 1125.42 190.246C1125.8 189.618 1125.59 188.802 1124.97 188.424Z" fill="black"/>
<path id="Vector_309" d="M1093.95 138.463C1093.32 138.085 1092.51 138.289 1092.13 138.917C1091.75 139.546 1091.96 140.361 1092.58 140.739C1093.21 141.116 1094.03 140.913 1094.41 140.284C1094.78 139.656 1094.58 138.841 1093.95 138.463Z" fill="black"/>
<path id="Vector_310" d="M1077.73 91.2706C1077.1 90.8931 1076.29 91.0964 1075.91 91.7248C1075.53 92.3532 1075.74 93.1687 1076.37 93.5463C1076.99 93.9239 1077.81 93.7206 1078.19 93.0921C1078.56 92.4637 1078.36 91.6482 1077.73 91.2706Z" fill="black"/>
<path id="Vector_311" d="M1261.39 321.847C1260.76 321.47 1259.95 321.673 1259.57 322.301C1259.19 322.93 1259.4 323.745 1260.03 324.123C1260.65 324.501 1261.47 324.297 1261.85 323.669C1262.22 323.04 1262.02 322.225 1261.39 321.847Z" fill="black"/>
<path id="Vector_312" d="M1248.12 223.55C1247.49 223.173 1246.67 223.376 1246.29 224.005C1245.92 224.633 1246.12 225.449 1246.75 225.826C1247.38 226.204 1248.19 226 1248.57 225.372C1248.95 224.744 1248.74 223.928 1248.12 223.55Z" fill="black"/>
<path id="Vector_313" d="M1263.86 128.666C1263.23 128.289 1262.41 128.492 1262.03 129.12C1261.66 129.749 1261.86 130.564 1262.49 130.942C1263.12 131.319 1263.93 131.116 1264.31 130.488C1264.69 129.859 1264.48 129.044 1263.86 128.666Z" fill="black"/>
<path id="Vector_314" d="M1257.46 253.601C1256.83 253.223 1256.01 253.426 1255.63 254.055C1255.26 254.683 1255.46 255.499 1256.09 255.876C1256.72 256.254 1257.53 256.051 1257.91 255.422C1258.29 254.794 1258.08 253.978 1257.46 253.601Z" fill="black"/>
<path id="Vector_315" d="M1192.41 219.964C1191.78 219.586 1190.97 219.79 1190.59 220.418C1190.21 221.047 1190.41 221.862 1191.04 222.24C1191.67 222.617 1192.49 222.414 1192.86 221.786C1193.24 221.157 1193.04 220.342 1192.41 219.964Z" fill="black"/>
<path id="Vector_316" d="M1141.42 174.295C1140.8 173.917 1139.98 174.12 1139.6 174.749C1139.22 175.377 1139.43 176.193 1140.06 176.57C1140.68 176.948 1141.5 176.744 1141.88 176.116C1142.26 175.488 1142.05 174.672 1141.42 174.295Z" fill="black"/>
<path id="Vector_317" d="M1106.8 123.466C1106.17 123.088 1105.36 123.292 1104.98 123.92C1104.6 124.549 1104.8 125.364 1105.43 125.742C1106.06 126.119 1106.88 125.916 1107.25 125.287C1107.63 124.659 1107.43 123.843 1106.8 123.466Z" fill="black"/>
<path id="Vector_318" d="M1087.93 74.2823C1087.3 73.9048 1086.49 74.1082 1086.11 74.7366C1085.73 75.365 1085.93 76.1805 1086.56 76.5581C1087.19 76.9356 1088.01 76.7323 1088.38 76.1039C1088.76 75.4754 1088.56 74.6599 1087.93 74.2823Z" fill="black"/>
<path id="Vector_319" d="M1246.26 266.103C1245.63 265.725 1244.81 265.928 1244.44 266.557C1244.06 267.185 1244.26 268.001 1244.89 268.378C1245.52 268.756 1246.33 268.553 1246.71 267.924C1247.09 267.296 1246.89 266.48 1246.26 266.103Z" fill="black"/>
<path id="Vector_320" d="M1246.76 150.457C1246.13 150.08 1245.31 150.283 1244.93 150.911C1244.56 151.54 1244.76 152.355 1245.39 152.733C1246.02 153.11 1246.83 152.907 1247.21 152.279C1247.59 151.65 1247.38 150.835 1246.76 150.457Z" fill="black"/>
<path id="Vector_321" d="M1278.83 234.725C1278.21 234.348 1277.39 234.551 1277.01 235.179C1276.64 235.808 1276.84 236.623 1277.47 237.001C1278.1 237.378 1278.91 237.175 1279.29 236.547C1279.67 235.918 1279.46 235.103 1278.83 234.725Z" fill="black"/>
<path id="Vector_322" d="M1210.93 202.883C1210.3 202.505 1209.48 202.709 1209.11 203.337C1208.73 203.966 1208.93 204.781 1209.56 205.159C1210.19 205.536 1211.01 205.333 1211.38 204.704C1211.76 204.076 1211.56 203.261 1210.93 202.883Z" fill="black"/>
<path id="Vector_323" d="M1156.97 157.701C1156.34 157.324 1155.53 157.527 1155.15 158.156C1154.77 158.784 1154.97 159.599 1155.6 159.977C1156.23 160.355 1157.05 160.151 1157.42 159.523C1157.8 158.894 1157.6 158.079 1156.97 157.701Z" fill="black"/>
<path id="Vector_324" d="M1119.73 106.227C1119.1 105.85 1118.28 106.053 1117.91 106.681C1117.53 107.31 1117.73 108.125 1118.36 108.503C1118.99 108.88 1119.81 108.677 1120.18 108.049C1120.56 107.42 1120.36 106.605 1119.73 106.227Z" fill="black"/>
<path id="Vector_325" d="M1098.94 55.5719C1098.31 55.1943 1097.49 55.3977 1097.12 56.0261C1096.74 56.6545 1096.94 57.47 1097.57 57.8476C1098.2 58.2252 1099.01 58.0218 1099.39 57.3934C1099.77 56.765 1099.57 55.9495 1098.94 55.5719Z" fill="black"/>
<path id="Vector_326" d="M1255.69 290.917C1255.06 290.54 1254.25 290.743 1253.87 291.371C1253.49 292 1253.69 292.815 1254.32 293.193C1254.95 293.57 1255.77 293.367 1256.14 292.739C1256.52 292.11 1256.32 291.295 1255.69 290.917Z" fill="black"/>
<path id="Vector_327" d="M1242.92 158.055C1242.29 157.678 1241.47 157.881 1241.1 158.51C1240.72 159.138 1240.92 159.953 1241.55 160.331C1242.18 160.709 1243 160.505 1243.37 159.877C1243.75 159.248 1243.55 158.433 1242.92 158.055Z" fill="black"/>
<path id="Vector_328" d="M1274.81 44.5177C1274.18 44.1401 1273.37 44.3434 1272.99 44.9719C1272.61 45.6003 1272.82 46.4159 1273.45 46.7934C1274.07 47.171 1274.89 46.9675 1275.27 46.3391C1275.64 45.7107 1275.44 44.8952 1274.81 44.5177Z" fill="black"/>
<path id="Vector_329" d="M1226.72 183.729C1226.1 183.352 1225.28 183.555 1224.9 184.183C1224.53 184.812 1224.73 185.627 1225.36 186.005C1225.99 186.382 1226.8 186.179 1227.18 185.551C1227.56 184.922 1227.35 184.107 1226.72 183.729Z" fill="black"/>
<path id="Vector_330" d="M1171.01 138.569C1170.38 138.191 1169.57 138.395 1169.19 139.023C1168.81 139.652 1169.02 140.467 1169.64 140.845C1170.27 141.222 1171.09 141.019 1171.47 140.39C1171.84 139.762 1171.64 138.947 1171.01 138.569Z" fill="black"/>
<path id="Vector_331" d="M1132.3 86.4869C1131.67 86.1094 1130.85 86.3127 1130.48 86.9411C1130.1 87.5696 1130.3 88.3851 1130.93 88.7627C1131.56 89.1402 1132.37 88.9368 1132.75 88.3084C1133.13 87.68 1132.93 86.8645 1132.3 86.4869Z" fill="black"/>
<path id="Vector_332" d="M1110.49 34.7867C1109.86 34.4092 1109.05 34.6125 1108.67 35.2409C1108.29 35.8694 1108.49 36.6849 1109.12 37.0625C1109.75 37.44 1110.57 37.2366 1110.94 36.6082C1111.32 35.9798 1111.12 35.1643 1110.49 34.7867Z" fill="black"/>
<path id="Vector_333" d="M1263.47 281.905C1262.84 281.528 1262.03 281.731 1261.65 282.36C1261.27 282.988 1261.47 283.804 1262.1 284.181C1262.73 284.559 1263.55 284.355 1263.92 283.727C1264.3 283.098 1264.1 282.283 1263.47 281.905Z" fill="black"/>
<path id="Vector_334" d="M1248.32 138.413C1247.7 138.036 1246.88 138.239 1246.5 138.867C1246.13 139.496 1246.33 140.311 1246.96 140.689C1247.59 141.066 1248.4 140.863 1248.78 140.235C1249.16 139.606 1248.95 138.791 1248.32 138.413Z" fill="black"/>
<path id="Vector_335" d="M1282.34 19.1696C1281.71 18.792 1280.9 18.9954 1280.52 19.6238C1280.14 20.2522 1280.35 21.0677 1280.97 21.4453C1281.6 21.8228 1282.42 21.6195 1282.79 20.9911C1283.17 20.3627 1282.97 19.5472 1282.34 19.1696Z" fill="black"/>
<path id="Vector_336" d="M1239.36 162.569C1238.73 162.191 1237.92 162.395 1237.54 163.023C1237.16 163.652 1237.37 164.467 1237.99 164.845C1238.62 165.222 1239.44 165.019 1239.82 164.39C1240.19 163.762 1239.99 162.946 1239.36 162.569Z" fill="black"/>
<path id="Vector_337" d="M1183.19 116.81C1182.56 116.433 1181.74 116.636 1181.37 117.264C1180.99 117.893 1181.19 118.708 1181.82 119.086C1182.45 119.463 1183.26 119.26 1183.64 118.632C1184.02 118.003 1183.82 117.188 1183.19 116.81Z" fill="black"/>
<path id="Vector_338" d="M1144.25 64.0529C1143.62 63.6753 1142.8 63.8787 1142.43 64.5071C1142.05 65.1355 1142.25 65.951 1142.88 66.3286C1143.51 66.7061 1144.32 66.5028 1144.7 65.8744C1145.08 65.246 1144.88 64.4304 1144.25 64.0529Z" fill="black"/>
<path id="Vector_339" d="M1122.44 11.6861C1121.81 11.3085 1121 11.5119 1120.62 12.1403C1120.24 12.7687 1120.45 13.5843 1121.08 13.9618C1121.7 14.3394 1122.52 14.136 1122.9 13.5076C1123.27 12.8792 1123.07 12.0637 1122.44 11.6861Z" fill="black"/>
<path id="Vector_340" d="M1263.54 220.262C1262.92 219.885 1262.1 220.088 1261.72 220.717C1261.34 221.345 1261.55 222.16 1262.18 222.538C1262.8 222.916 1263.62 222.712 1264 222.084C1264.38 221.455 1264.17 220.64 1263.54 220.262Z" fill="black"/>
<path id="Vector_341" d="M1264.95 81.7325C1264.32 81.355 1263.5 81.5583 1263.13 82.1867C1262.75 82.8152 1262.95 83.6307 1263.58 84.0083C1264.21 84.3858 1265.02 84.1824 1265.4 83.554C1265.78 82.9256 1265.58 82.1101 1264.95 81.7325Z" fill="black"/>
<path id="Vector_342" d="M1248.68 139.267C1248.05 138.89 1247.23 139.093 1246.86 139.721C1246.48 140.35 1246.68 141.165 1247.31 141.543C1247.94 141.92 1248.75 141.717 1249.13 141.089C1249.51 140.46 1249.31 139.645 1248.68 139.267Z" fill="black"/>
<path id="Vector_343" d="M1193.4 92.2609C1192.77 91.8833 1191.95 92.0867 1191.58 92.7151C1191.2 93.3435 1191.4 94.159 1192.03 94.5366C1192.66 94.9141 1193.48 94.7108 1193.85 94.0824C1194.23 93.454 1194.03 92.6384 1193.4 92.2609Z" fill="black"/>
<path id="Vector_344" d="M1155.54 38.7701C1154.92 38.3926 1154.1 38.596 1153.72 39.2244C1153.34 39.8528 1153.55 40.6683 1154.18 41.0459C1154.8 41.4234 1155.62 41.2201 1156 40.5917C1156.38 39.9632 1156.17 39.1477 1155.54 38.7701Z" fill="black"/>
<path id="Vector_345" d="M1278.47 97.7086C1277.85 97.3311 1277.03 97.5344 1276.65 98.1628C1276.27 98.7912 1276.48 99.6068 1277.11 99.9843C1277.73 100.362 1278.55 100.159 1278.93 99.5301C1279.31 98.9017 1279.1 98.0862 1278.47 97.7086Z" fill="black"/>
<path id="Vector_346" d="M1254.8 113.475C1254.17 113.097 1253.36 113.301 1252.98 113.929C1252.6 114.557 1252.81 115.373 1253.43 115.75C1254.06 116.128 1254.88 115.925 1255.26 115.296C1255.63 114.668 1255.43 113.852 1254.8 113.475Z" fill="black"/>
<path id="Vector_347" d="M1201.85 64.6993C1201.22 64.3218 1200.4 64.5251 1200.03 65.1535C1199.65 65.782 1199.85 66.5975 1200.48 66.9751C1201.11 67.3526 1201.93 67.1493 1202.3 66.5209C1202.68 65.8924 1202.48 65.0769 1201.85 64.6993Z" fill="black"/>
<path id="Vector_348" d="M1166.41 10.5143C1165.78 10.1367 1164.97 10.3401 1164.59 10.9685C1164.21 11.5969 1164.41 12.4124 1165.04 12.79C1165.67 13.1676 1166.49 12.9642 1166.86 12.3358C1167.24 11.7074 1167.04 10.8918 1166.41 10.5143Z" fill="black"/>
<path id="Vector_349" d="M1258.21 84.6657C1257.58 84.2881 1256.77 84.4915 1256.39 85.1199C1256.01 85.7483 1256.22 86.5638 1256.85 86.9414C1257.47 87.3189 1258.29 87.1156 1258.67 86.4872C1259.04 85.8587 1258.84 85.0432 1258.21 84.6657Z" fill="black"/>
<path id="Vector_350" d="M1209.05 33.8639C1208.42 33.4863 1207.6 33.6897 1207.23 34.3181C1206.85 34.9465 1207.05 35.762 1207.68 36.1396C1208.31 36.5172 1209.13 36.3138 1209.5 35.6854C1209.88 35.0569 1209.68 34.2415 1209.05 33.8639Z" fill="black"/>
<path id="Vector_351" d="M1259.75 52.2452C1259.13 51.8676 1258.31 52.071 1257.93 52.6994C1257.56 53.3278 1257.76 54.1434 1258.39 54.521C1259.02 54.8985 1259.83 54.6951 1260.21 54.0667C1260.59 53.4382 1260.38 52.6228 1259.75 52.2452Z" fill="black"/>
<path id="Vector_352" d="M1215.82 -0.451092C1215.19 -0.828658 1214.38 -0.625361 1214 0.00305759C1213.62 0.631477 1213.83 1.4471 1214.46 1.82467C1215.08 2.20223 1215.9 1.9988 1216.28 1.37038C1216.66 0.741959 1216.45 -0.0735255 1215.82 -0.451092Z" fill="black"/>
</g>
</g>
<defs>
<clipPath id="clip0_8_55339">
<rect width="1280" height="707" fill="white"/>
</clipPath>
<clipPath id="clip1_8_55339">
<rect width="1125" height="1217.92" fill="white" transform="translate(1616.27 1269.11) rotate(-149.002)"/>
</clipPath>
</defs>
</svg>
